<?xml version="1.0" encoding="utf-8"?>
<!-- Generator: Adobe Illustrator 24.0.3, SVG Export Plug-In . SVG Version: 6.00 Build 0)  -->
<!DOCTYPE svg PUBLIC "-//W3C//DTD SVG 1.1//EN" "http://www.w3.org/Graphics/SVG/1.1/DTD/svg11.dtd" [
	<!ENTITY ns_extend "http://ns.adobe.com/Extensibility/1.0/">
	<!ENTITY ns_ai "http://ns.adobe.com/AdobeIllustrator/10.0/">
	<!ENTITY ns_graphs "http://ns.adobe.com/Graphs/1.0/">
	<!ENTITY ns_vars "http://ns.adobe.com/Variables/1.0/">
	<!ENTITY ns_imrep "http://ns.adobe.com/ImageReplacement/1.0/">
	<!ENTITY ns_sfw "http://ns.adobe.com/SaveForWeb/1.0/">
	<!ENTITY ns_custom "http://ns.adobe.com/GenericCustomNamespace/1.0/">
	<!ENTITY ns_adobe_xpath "http://ns.adobe.com/XPath/1.0/">
]>
<svg version="1.1" id="gear" xmlns:x="&ns_extend;" xmlns:i="&ns_ai;" xmlns:graph="&ns_graphs;"
	 xmlns="http://www.w3.org/2000/svg" xmlns:xlink="http://www.w3.org/1999/xlink" x="0px" y="0px" viewBox="0 0 468.2 468.2"
	 style="enable-background:new 0 0 468.2 468.2;" xml:space="preserve">
<style type="text/css">
	.st0{opacity:0.7;fill:#B4C6CD;enable-background:new    ;}
	.st1{fill:#4A8691;}
	.st2{fill:#38B482;}
	.st3{fill:#9896A4;}
</style>
<metadata>
	<sfw  xmlns="&ns_sfw;">
		<slices></slices>
		<sliceSourceBounds  bottomLeftOrigin="true" height="468.2" width="468.2" x="125.9" y="125.9"></sliceSourceBounds>
	</sfw>
</metadata>
<circle id="circle" class="st0" cx="234.1" cy="234.1" r="234.1"/>
<g id="_x31_2">
	<path class="st1" d="M256.9,244.1l-17.4-17.4c3.8-6.6,6.7-13.7,8.8-21.2H273v-49.6h-24.7c-2.1-7.5-5-14.6-8.8-21.2l17.4-17.4
		l-35-35l-17.4,17.4c-6.6-3.8-13.7-6.7-21.2-8.8V66.2h-49.6v24.7c-7.5,2.1-14.6,5-21.2,8.8L95.1,82.3l-35,35l17.4,17.4
		c-3.8,6.6-6.7,13.7-8.8,21.2H44v49.6h24.7c2.1,7.5,5,14.6,8.8,21.2L60,244.1l35,35l17.4-17.4c6.6,3.8,13.7,6.7,21.2,8.8v24.6h49.6
		v-24.7c7.5-2.1,14.6-5,21.2-8.8l17.4,17.4L256.9,244.1z M158.4,223.1c-23.4,0-42.4-19-42.4-42.4s19-42.4,42.4-42.4
		s42.4,19,42.4,42.4C200.9,204.1,181.9,223.1,158.4,223.1z"/>
	<path class="st2" d="M420.1,260.7l4.2-35l-17.4-2.1c-0.8-5.5-2.3-10.7-4.4-15.7l13.8-10.9l-21.8-27.7l-13.8,10.9
		c-4.3-3.2-9.1-5.9-14.2-8l2.1-17.4l-35-4.2l-2.1,17.4c-5.5,0.8-10.7,2.3-15.7,4.4l-10.9-13.8l-27.8,22l10.9,13.8
		c-3.2,4.3-5.9,9.1-8,14.2l-17.4-2.1l-4.2,35l17.4,2.1c0.8,5.5,2.3,10.7,4.4,15.7l-13.7,10.8l21.8,27.7l13.8-10.9
		c4.3,3.2,9.1,5.9,14.2,8l-2.1,17.4l35,4.2l2.1-17.4c5.5-0.8,10.7-2.3,15.7-4.4l10.9,13.8l27.7-21.8l-10.9-13.8
		c3.2-4.3,5.9-9.1,8-14.2L420.1,260.7z M371.3,237.2c-2,16.6-17,28.4-33.5,26.4c-16.6-2-28.4-17-26.4-33.5c2-16.6,17-28.4,33.5-26.4
		C361.4,205.6,373.3,220.6,371.3,237.2z"/>
	<path class="st3" d="M327.7,347.5l-5.4-21.8l-10.9,2.7c-1.7-3-3.7-5.8-6.2-8.4l5.8-9.6l-19.2-11.6l-5.8,9.6
		c-3.4-1-6.8-1.5-10.3-1.6l-2.7-10.9l-21.8,5.4l2.7,10.9c-3,1.7-5.8,3.7-8.4,6.2l-9.6-5.8l-11.6,19.2l9.6,5.8
		c-1,3.4-1.5,6.8-1.6,10.3l-10.9,2.7l5.4,21.8l10.9-2.7c1.7,3,3.7,5.8,6.2,8.4l-5.8,9.6l19.2,11.6l5.8-9.6c3.4,1,6.8,1.5,10.3,1.6
		l2.7,10.9l21.8-5.4l-2.7-10.9c3-1.7,5.8-3.7,8.4-6.2l9.6,5.8l11.6-19.2l-9.6-5.8c1-3.4,1.5-6.8,1.6-10.3L327.7,347.5z M291.1,358.9
		c-5.5,9.1-17.3,12-26.4,6.5s-12-17.3-6.5-26.4s17.3-12,26.4-6.5S296.6,349.8,291.1,358.9z"/>
</g>
</svg>
