<?xml version="1.0" encoding="utf-8"?>
<!-- Generator: Adobe Illustrator 22.0.1, SVG Export Plug-In . SVG Version: 6.00 Build 0)  -->
<svg version="1.1" id="Layer_1" xmlns="http://www.w3.org/2000/svg" xmlns:xlink="http://www.w3.org/1999/xlink" x="0px" y="0px"
	 viewBox="0 0 326 210.2" style="enable-background:new 0 0 326 210.2;" xml:space="preserve">
<style type="text/css">
	.Arched_x0020_Green{fill:url(#SVGID_1_);stroke:#FFFFFF;stroke-width:0.25;stroke-miterlimit:1;}
	.st0{fill:#C0D9E6;}
	.st1{fill:#D0A473;}
	.st2{fill:#FDC689;}
	.st3{fill:#A6845C;}
	.st4{fill:#FFFFFF;}
	.st5{fill:#648290;}
	.st6{fill:#58595B;}
	.st7{fill:#4D4D4F;}
	.st8{fill:#57727E;}
</style>
<linearGradient id="SVGID_1_" gradientUnits="userSpaceOnUse" x1="-7.0865" y1="246.8325" x2="-6.3794" y2="246.1254">
	<stop  offset="0" style="stop-color:#20AC4B"/>
	<stop  offset="0.9831" style="stop-color:#19361A"/>
</linearGradient>
<g>
	<path class="st0" d="M168.2,210.2c-6.4,0-11.4-1.9-14.9-3.8c-2.7,1-6.2,1.8-10.2,1.8c-1.5,0-3-0.1-4.4-0.4c-5.2-0.9-9-3.4-11.5-6.2
		c-1.3,0.2-2.6,0.3-4.1,0.3c-1.6,0-3.3-0.1-4.9-0.3c-7.1-1-12.7-5.9-15.8-9.3c-5.5-0.9-14.9-3.6-20.8-11.5c-5.3-7.1-8.3-19.5-9.6-26
		c-2.4-1.8-4.4-3.4-6-4.9c-1.7-1.6-3.4-3.4-5.1-5.3c0,0-2.9,5.6-2.9,5.6L47,148.5l-1.8,6L2.6,154l-1-7.5c-0.2-1.4-4.5-34.5,1.7-69.2
		c6.2-34.7,19.2-59.6,19.8-60.6l3.3-6.3l51.9,14.8l-0.7,6l14.5,4.5l-0.4,5.6c0.8,0.1,1.7,0.2,2.5,0.3c5.6-1.8,22-7,34.1-7.9
		c1.5-0.1,3-0.2,4.5-0.2c8.9,0,16.7,1.9,21.1,3.3c2.7-1.8,4.4-3,4.4-3l2.2-1.6l2.8-0.1c0,0,0.9,0,2.4,0c7,0,24.5,0.4,35.9,4.3
		c8.2,2.8,14,6.5,17.6,9.3c2.8-0.9,5.5-1.8,7.8-2.6l-5.9-6.5l20.4-8.1l-3.3-2.9l11.4-5.8L288.6,0l4.5,4.1
		c0.7,0.7,17.9,16.7,27.2,52.9c9.1,35.2,4.5,78.6,4.3,80.5l-0.7,6.6l-46,8.1l0.5-10.9c0,0,0.1-2.1,0.1-5.6l-18.8,2.9l-0.6-4.3
		c-2.5,0.9-4.6,1.5-5.8,1.9c-0.3,0.3-0.7,0.7-1.2,1.5c-1.8,2.5-4.1,4.3-6.3,5.7c0.1,6-1.1,13.7-6.3,18.1c-2.7,2.3-5.5,3.7-8,4.5
		c-1.3,3.4-3.4,7.6-7.1,11.1c-3.3,3.1-7.7,4.8-13.2,5c-1,4.1-3.4,7.7-7.7,10.1c-3.9,2.1-7.2,3.5-9.4,4.2c-4.6,6-9.5,9.9-14.7,11.8
		C175.8,209.5,172,210.2,168.2,210.2L168.2,210.2z"/>
	<path class="st1" d="M57,126.1c0,0,8.1,10.7,15.2,17.5c7.1,6.9,24.1,16,24.1,16s28.9,15.7,45.7,20c16.7,4.3,47.2,9.1,47.2,9.1
		s4.1-1,10.1-4.3c6.1-3.3,2.8-12.2,2.8-12.2s11.2,3.4,16.3-1.5c5.1-4.8,6.1-12.2,6.1-12.2s4.8,0,9.4-3.8c4.6-3.8,2.8-16.5,2.8-16.5
		s6.7-16.2-4.5-35c-32-53.3-77.6-57.1-77.6-57.1s-11.9-4.8-25.4-3.8c-13.4,1-33.7,8.1-33.7,8.1s-7.6-0.8-9.4-1c-1.8-0.3-5.1-2-5.1-2
		s-2.8,24.4-7.4,41.9C68.9,106.8,57,126.1,57,126.1z"/>
	<path class="st2" d="M99.6,101.4c0,0,7.4-9.4,10.9-16c3.6-6.6,10.7-22.3,10.7-22.3s9.4-3.8,21.6-9.9c12.2-6.1,20.8-12.4,20.8-12.4
		s22.6-0.5,35.3,3.8c12.7,4.3,18.3,10.9,18.3,10.9s16.5-5.3,19.3-6.6c2.8-1.3,10.1-4.6,10.1-4.6s10.9,10.4,17.8,36.3
		c6.9,25.9,7.4,41.4,7.4,41.4s-7.9,1.3-12.9,3c-5.1,1.8-9.1,3-9.1,3s-1.8,0.5-4.6,4.3c-2.8,3.8-8.4,5.8-8.4,5.8s0.8-11.4-10.4-20
		c-11.2-8.6-22.1-14-26.6-18c-4.6-4.1-9.4-12.7-9.4-12.7s-6.1,0.8-12.9-0.8c-6.9-1.5-13.2-6.1-13.2-6.1s0.5,1.8-6.3,5.3
		c-6.9,3.6-14.7,2.3-14.7,2.3s-6.1,14.9-18,18.3C102.9,112.9,99.6,101.4,99.6,101.4z"/>
	<path class="st2" d="M80.1,149.7c0,0,2.8,18,8.6,25.9c5.8,7.9,18.3,8.4,18.3,8.4s5.3,7.9,12.4,8.9c7.1,1,11.9-1.3,11.9-1.3
		s1.5,6.3,8.9,7.6c7.4,1.3,14-2.8,14-2.8s8.9,8.4,22.3,3.6c13.4-4.8,22.3-31.7,22.3-31.7s1.5-9.4-1.8-11.7c-3.3-2.3-9.6-1.8-9.6-1.8
		s-0.9-6.8-6.3-9.6c-11.2-5.8-22.8,11.2-22.8,11.2s6.9-13.5-4.3-17.5c-14.2-5.1-25.6,16.5-25.6,16.5s1.7-4.8-6.1-7.1
		c-14.7-4.3-25.9,11.4-25.9,11.4s-3.4-2.1-6.9-4.1C85.9,153.4,80.1,149.7,80.1,149.7z"/>
	<path class="st3" d="M107.6,182.6c0,0,5.6-3.5,11.7-11.1c6.1-7.6,9.2-13.8,9.2-13.8s0.4,9.2-6.9,17
		C113.2,183.8,107.6,182.6,107.6,182.6z"/>
	<path class="st3" d="M132.6,190.5c0,0,1.6-0.1,11.8-12.1c10.2-12.1,14.2-23.2,14.2-23.2s-0.5,10-8.6,21.6
		C142.1,188.1,132.6,190.5,132.6,190.5z"/>
	<path class="st3" d="M154.7,196c0,0,9.9-6.3,15.7-12.3c6.9-7.1,13.7-22.7,13.7-22.7s-3.3,19.5-11.4,26.4
		C164.6,194.3,154.7,196,154.7,196z"/>
	<path class="st3" d="M109,155.5c0,0-4.3,2.5-1,7.4c3.3,4.8,12.4,2.3,12.4,2.3s-4.3,0.3-8.1-3.3C108.5,158.3,109,155.5,109,155.5z"
		/>
	<path class="st3" d="M139.5,150.7c0,0-4.1,6.1,1.5,8.9c5.6,2.8,11.9-1.3,11.9-1.3s-6.3,1-9.6-1.5
		C140,154.2,139.5,150.7,139.5,150.7z"/>
	<path class="st3" d="M167.1,155.2c0,0-4.1,6.1,1.5,8.9c5.6,2.8,11.9-1.3,11.9-1.3s-6.3,1-9.6-1.5
		C167.6,158.8,167.1,155.2,167.1,155.2z"/>
	<path class="st3" d="M184.3,166.6c0,0-1.7,6.6,2.9,8.5c4.6,1.9,8.4-3,8.4-3s-4.4,2-7.3,0C185.4,170,184.3,166.6,184.3,166.6z"/>
	<path class="st3" d="M116.1,84.2c0,0,13.2-0.3,6.9,8.9c-6.3,9.1-17.8,8.6-17.8,8.6s9.1-1.5,13.2-7.1
		C122.5,89,116.1,84.2,116.1,84.2z"/>
	<path class="st3" d="M189.4,125c0,0,7.7,0.9,21.8,14.2c10.4,9.8,13.2,19.4,13.2,19.4s-7.2-10.9-15.9-18.5
		C200.8,133.4,189.4,125,189.4,125z"/>
	<path class="st3" d="M230.9,131.5c0,0-1.6,4.8-4.2,7.4c-2.6,2.6-5.3,4.5-5.3,4.5s2.4,2.1,6.3-1.3
		C231.7,138.7,230.9,131.5,230.9,131.5z"/>
	<path class="st3" d="M175.7,123.3c0,0-1.6,4.8-4.2,7.4c-2.6,2.6-5.3,4.5-5.3,4.5s2.4,2.1,6.3-1.3
		C176.5,130.5,175.7,123.3,175.7,123.3z"/>
	<path class="st3" d="M191.8,104.1c0,0-1.6,4.8-4.2,7.4c-2.6,2.6-5.3,4.5-5.3,4.5s2.4,2.1,6.3-1.3
		C192.6,111.2,191.8,104.1,191.8,104.1z"/>
	<path class="st4" d="M236.2,40c0,0,16.2,17.9,21.3,35.8c5.1,17.9,9.8,52.7,9.8,52.7l42.2-6.4c0,0,4.1-36.5-3.4-59.8
		c-7.4-23.3-23-40.8-23-40.8L236.2,40z"/>
	<path class="st4" d="M82.9,42c0,0-2,30-9.8,52.7c-7.8,22.6-19.9,45.9-19.9,45.9l-28.4-4.4c0,0,11.5-28.4,17.9-52.7
		c6.4-24.3,13.8-49.6,13.8-49.6L82.9,42z"/>
	<path class="st5" d="M253.8,27.5c0,0,18.9,16.9,27,45.2c8.1,28.4,6.4,68.9,6.4,68.9l28.7-5.1c0,0,4.7-43.2-4.1-77.3
		c-8.8-34.1-24.6-48.6-24.6-48.6L253.8,27.5z"/>
	<path class="st6" d="M68.8,31.5c0,0-3.7,30-12.2,56.4c-8.4,26.3-17.9,57.7-17.9,57.7l-28.4-0.3c0,0-4.4-32.7,1.7-66.5
		C18.1,45,30.9,20.7,30.9,20.7L68.8,31.5z"/>
</g>
<path class="st7" d="M12.5,141.6c0,0,9-1.9,19-13.3c9.3-10.7,20-35,20-35s-7,26.3-10.7,35.7c-3.1,7.9-5.7,14-5.7,14L12.5,141.6z"/>
<path class="st8" d="M314.5,135.2c0,0-6.8-3.4-15.5-15.9c-8.8-12.6-14.2-37.7-14.2-37.7s3.1,20.7,4,35.4c0.6,8.5-0.2,22.6-0.2,22.6
	L314.5,135.2z"/>
</svg>
