<?xml version="1.0" encoding="utf-8"?>
<!-- Generator: Adobe Illustrator 23.0.5, SVG Export Plug-In . SVG Version: 6.00 Build 0)  -->
<svg version="1.1" id="Слой_1" xmlns="http://www.w3.org/2000/svg" xmlns:xlink="http://www.w3.org/1999/xlink" x="0px" y="0px"
	 viewBox="0 0 807 872.6" style="enable-background:new 0 0 807 872.6;" xml:space="preserve">
<style type="text/css">
	.st0{opacity:0.39;}
	.st1{fill:#FFFFFF;}
	.st2{opacity:0.39;fill:#FFFFFF;enable-background:new    ;}
	.st3{fill:none;stroke:#1E223B;stroke-width:2;stroke-linecap:round;stroke-linejoin:round;}
	.st4{fill:#028B9E;stroke:#1E223B;stroke-width:2;stroke-linecap:round;stroke-linejoin:round;}
	
		.st5{opacity:0.4;fill:#028B9E;stroke:#1E223B;stroke-width:2;stroke-linecap:round;stroke-linejoin:round;enable-background:new    ;}
	.st6{opacity:0.11;fill:#161616;stroke:#1E223B;stroke-miterlimit:10;enable-background:new    ;}
	.st7{fill:#2F4584;}
	.st8{opacity:0.15;fill:#1E223B;stroke:#1E223B;stroke-width:2;stroke-miterlimit:11;enable-background:new    ;}
	.st9{fill:#FF5855;stroke:#1E223B;stroke-miterlimit:10;}
	.st10{opacity:0.1;}
	.st11{fill:#1E223B;}
	.st12{fill:#263C72;}
	.st13{fill:#EFEFEF;}
	.st14{fill:#363D56;}
	.st15{fill:#424960;}
	.st16{fill:#F73E39;}
	.st17{fill:#383838;}
	.st18{fill:#C6C6C6;}
	.st19{opacity:0.28;fill:#8289A3;enable-background:new    ;}
	.st20{opacity:0.32;}
	.st21{fill:none;stroke:#1E223B;stroke-linecap:round;stroke-linejoin:round;}
	.st22{opacity:0.49;}
	.st23{opacity:0.5;fill:#FFFFFF;enable-background:new    ;}
	.st24{fill:#DD4814;}
	.st25{fill:#777BB4;}
	.st26{opacity:0.88;fill:#FF5855;stroke:#1E223B;stroke-miterlimit:10;enable-background:new    ;}
	.st27{fill:#0270BB;}
	.st28{opacity:0.59;fill:#FFFFFF;enable-background:new    ;}
	.st29{opacity:0.32;fill:#FFFFFF;enable-background:new    ;}
	.st30{opacity:0.12;fill:#0270BB;enable-background:new    ;}
	.st31{opacity:0.47;fill:#0270BB;enable-background:new    ;}
	.st32{fill:#FFFFFF;stroke:#1E223B;stroke-width:2;stroke-linecap:round;stroke-linejoin:round;}
	.st33{fill:#F35045;}
	
		.st34{opacity:0.32;fill:none;stroke:#1E223B;stroke-width:2;stroke-linecap:round;stroke-linejoin:round;enable-background:new    ;}
	
		.st35{opacity:0.15;fill:none;stroke:#1E223B;stroke-width:2;stroke-linecap:round;stroke-linejoin:round;enable-background:new    ;}
	
		.st36{opacity:0.26;fill:none;stroke:#1E223B;stroke-width:2;stroke-linecap:round;stroke-linejoin:round;enable-background:new    ;}
	.st37{fill:#4AD3A5;stroke:#1E223B;stroke-miterlimit:10;}
	.st38{fill:#F2A197;}
	.st39{opacity:0.2;fill:#1E223B;enable-background:new    ;}
	.st40{fill:#FDB3A6;}
	.st41{fill:none;stroke:#1E223B;stroke-width:3;stroke-linecap:round;stroke-linejoin:round;}
	.st42{fill:none;stroke:#1E223B;stroke-width:2;stroke-linecap:round;stroke-linejoin:round;stroke-dasharray:5.9537,7.9382;}
	.st43{fill:none;stroke:#1E223B;stroke-width:2;stroke-linecap:round;stroke-linejoin:round;stroke-dasharray:6,8;}
	.st44{fill:#F73E59;}
	.st45{fill:#E44D26;stroke:#1E223B;stroke-width:2;stroke-miterlimit:10;}
</style>
<title>112-installing</title>
<g>
	<g class="st0">
		<circle class="st1" cx="47.4" cy="330.3" r="20.4"/>
		<circle class="st1" cx="47.4" cy="330.3" r="8.7"/>
		<path class="st1" d="M79.1,301.1l-12.6,7.3l0,0c-0.9-0.8-1.9-1.5-2.9-2.2l0,0l3.8-14.1c0.6-2.3-0.8-4.7-3.1-5.4l-9.8-2.6
			c-2.3-0.6-4.7,0.8-5.4,3.1l-3.8,14.1h0c-1.2,0.1-2.4,0.2-3.6,0.5l0,0l-7.3-12.6c-1.2-2.1-3.9-2.8-6-1.6c0,0,0,0,0,0l-8.8,5.1
			c-2.1,1.2-2.8,3.9-1.6,6c0,0,0,0,0,0l7.3,12.6l0,0c-0.8,0.9-1.5,1.9-2.2,2.9l0,0l-14.1-3.8c-2.3-0.6-4.7,0.8-5.4,3.1l-2.6,9.8
			c-0.6,2.3,0.8,4.7,3.1,5.4l14.1,3.8l0,0c0.1,1.2,0.2,2.4,0.5,3.6l0,0l-12.6,7.3c-2.1,1.2-2.8,3.9-1.6,6l5.1,8.8
			c1.2,2.1,3.9,2.8,6,1.6c0,0,0,0,0,0l12.6-7.3l0,0c0.9,0.8,1.9,1.6,2.9,2.3l-0.1,0l-3.8,14.1c-0.6,2.3,0.8,4.7,3.1,5.4l9.8,2.6
			c2.3,0.6,4.7-0.8,5.4-3.1l3.8-14.1l-0.1,0c1.2-0.1,2.5-0.2,3.7-0.5l-0.1,0l7.3,12.6c1.2,2.1,3.9,2.8,6,1.6c0,0,0,0,0,0L75,368
			c2.1-1.2,2.8-3.9,1.6-6l-7.3-12.6l-0.1,0c0.8-0.9,1.6-1.9,2.3-3l0,0.1l14.1,3.8c2.3,0.6,4.7-0.8,5.4-3.1c0,0,0,0,0,0l2.6-9.8
			c0.6-2.3-0.8-4.7-3.1-5.4c0,0,0,0,0,0l-14.1-3.8l0,0.1c-0.1-1.2-0.2-2.5-0.5-3.7l0,0l12.6-7.3c2.1-1.2,2.8-3.9,1.6-6l-5.1-8.8
			C83.9,300.6,81.2,299.9,79.1,301.1z"/>
	</g>
	<circle class="st2" cx="172" cy="92.5" r="51.5"/>
	<polygon class="st3" points="171.3,93 199.1,76.8 199,107.1 171.2,123.3 	"/>
	<polygon class="st3" points="144.9,77.8 172.8,61.6 199.1,76.8 171.3,93 	"/>
	<polygon class="st4" points="144.9,77.8 172.8,61.6 199.1,76.8 171.3,93 	"/>
	<polygon class="st5" points="171.3,93 171.2,123.3 144.8,108.1 144.9,77.8 	"/>
	<polygon class="st3" points="171.3,93 171.2,123.3 144.8,108.1 144.9,77.8 	"/>
	<circle class="st3" cx="172" cy="92.5" r="51.5"/>
	<path class="st6" d="M248.7,493.3h282c9.9,0,18,8.1,18,18v202c0,9.9-8.1,18-18,18h-282c-9.9,0-18-8.1-18-18v-202
		C230.7,501.4,238.8,493.3,248.7,493.3z"/>
	<path class="st6" d="M237.7,479.3h304c3.9,0,7,3.1,7,7l0,0c0,3.9-3.1,7-7,7h-304c-3.9,0-7-3.1-7-7l0,0
		C230.7,482.5,233.9,479.3,237.7,479.3z"/>
	<path class="st7" d="M238.7,485.3h282c9.9,0,18,8.1,18,18v202c0,9.9-8.1,18-18,18h-282c-9.9,0-18-8.1-18-18v-202
		C220.7,493.4,228.8,485.3,238.7,485.3z"/>
	<path class="st1" d="M238.7,485.3h282c9.9,0,18,8.1,18,18v196c0,9.9-8.1,18-18,18h-282c-9.9,0-18-8.1-18-18v-196
		C220.7,493.4,228.8,485.3,238.7,485.3z"/>
	<path class="st6" d="M427.2,703.2h-1.5c-3.3,0-6,2.7-6,6v7.2c0,1.7-1.3,3-3,3s-3-1.3-3-3v-7.2c0-3.3-2.7-6-6-6h-1.5
		c-3.3,0-6,2.7-6,6v7.2c0,1.7-1.3,3-3,3s-3-1.3-3-3v-7.2c0-3.3-2.7-6-6-6h-1.5c-3.3,0-6,2.7-6,6v7.2c0,1.7-1.3,3-3,3s-3-1.3-3-3v-45
		c0-3.3-2.7-6-6-6h-1.5c-3.3,0-6,2.7-6,6v78.4l-11.5-19.9c-1.7-2.9-5.3-3.9-8.2-2.2c0,0,0,0,0,0l-1.3,0.8c-2.9,1.7-3.9,5.3-2.2,8.2
		c0,0,0,0,0,0l24,41.6c1.8,4.6,6.2,7.6,11.2,7.6h2v24.7h-3.9v24.9h-1.9c-3.6,0-6.5,2.9-6.5,6.5l0,0v30.3h68.8v-30.3
		c0-3.6-2.9-6.5-6.5-6.5h0h-1.9v-24.9h-4v-24.7h2c6.6,0,12-5.4,12-12v-64.7C433.2,705.9,430.5,703.2,427.2,703.2z"/>
	<path class="st6" d="M312.3,699.3c6.2,0,11.4-4.7,11.9-10.9l22.1-38.3c1.7-2.9,0.7-6.5-2.2-8.2c0,0,0,0,0,0l-1.3-0.8
		c-2.9-1.7-6.5-0.7-8.2,2.2c0,0,0,0,0,0l-10.4,18v-76.5c0-3.3-2.7-6-6-6h-1.5c-3.3,0-6,2.7-6,6v45c0,1.7-1.3,3-3,3s-3-1.3-3-3v-53.7
		c0-3.3-2.7-6-6-6h-1.5c-3.3,0-6,2.7-6,6v53.7c0,1.7-1.3,3-3,3s-3-1.3-3-3v-45c0-3.3-2.7-6-6-6h-1.5c-3.3,0-6,2.7-6,6v45
		c0,1.7-1.3,3-3,3s-3-1.3-3-3v-30.8c0-3.3-2.7-6-6-6h-1.5c-3.3,0-6,2.7-6,6v88.2c0,6.6,5.4,12,12,12h2.6V724h-4.5v24.9h-1.9
		c-3.6,0-6.5,2.9-6.5,6.5v116.8h68.8V755.3c0-3.6-2.9-6.5-6.5-6.5h-1.9V724h-3.4v-24.7H312.3z"/>
	<path class="st8" d="M239.2,502.8h281c2.2,0,4,1.8,4,4v113c0,2.2-1.8,4-4,4h-281c-2.2,0-4-1.8-4-4v-113
		C235.2,504.6,237,502.8,239.2,502.8z"/>
	<path class="st3" d="M238.7,485.3h282c9.9,0,18,8.1,18,18v196c0,9.9-8.1,18-18,18h-282c-9.9,0-18-8.1-18-18v-196
		C220.7,493.4,228.8,485.3,238.7,485.3z"/>
	<path class="st3" d="M238.7,485.3h282c9.9,0,18,8.1,18,18v202c0,9.9-8.1,18-18,18h-282c-9.9,0-18-8.1-18-18v-202
		C220.7,493.4,228.8,485.3,238.7,485.3z"/>
	<path class="st7" d="M238.7,253.3h282c9.9,0,18,8.1,18,18v196c0,9.9-8.1,18-18,18h-282c-9.9,0-18-8.1-18-18v-196
		C220.7,261.4,228.8,253.3,238.7,253.3z"/>
	<path class="st3" d="M238.7,253.3h282c9.9,0,18,8.1,18,18v196c0,9.9-8.1,18-18,18h-282c-9.9,0-18-8.1-18-18v-196
		C220.7,261.4,228.8,253.3,238.7,253.3z"/>
	<path class="st1" d="M532.7,271.3v196c0,6.6-5.4,12-12,12h-282c-6.6,0-12-5.4-12-12v-196c0-6.6,5.4-12,12-12h282
		C527.4,259.3,532.7,264.7,532.7,271.3z"/>
	<rect x="250.7" y="283.3" class="st9" width="258" height="172"/>
	<path class="st3" d="M532.7,271.3v196c0,6.6-5.4,12-12,12h-282c-6.6,0-12-5.4-12-12v-196c0-6.6,5.4-12,12-12h282
		C527.4,259.3,532.7,264.7,532.7,271.3z"/>
	<rect x="250.7" y="283.3" class="st3" width="258" height="172"/>
	<g class="st10">
		<path class="st11" d="M341,633.3h77.5c2.3,0,4.3,1.9,4.3,4.3v51.5c0,2.3-1.9,4.3-4.3,4.3H341c-2.3,0-4.3-1.9-4.3-4.3v-51.5
			C336.7,635.2,338.6,633.3,341,633.3z"/>
	</g>
	<path class="st3" d="M341,633.3h77.5c2.3,0,4.3,1.9,4.3,4.3v51.5c0,2.3-1.9,4.3-4.3,4.3H341c-2.3,0-4.3-1.9-4.3-4.3v-51.5
		C336.7,635.2,338.6,633.3,341,633.3z"/>
	<rect x="342.2" y="715.3" class="st12" width="76" height="8"/>
	<rect x="342.2" y="715.3" class="st3" width="76" height="8"/>
	<path class="st6" d="M292.7,229.3h188c3.3,0,6,2.7,6,6v212c0,3.3-2.7,6-6,6h-188c-3.3,0-6-2.7-6-6v-212
		C286.7,232,289.4,229.3,292.7,229.3z"/>
	<path class="st1" d="M287.2,225.3h188c3.3,0,6,2.7,6,6v212c0,3.3-2.7,6-6,6h-188c-3.3,0-6-2.7-6-6v-212
		C281.2,228,283.9,225.3,287.2,225.3z"/>
	<path class="st13" d="M281.2,415.3h200l0,0v28c0,3.3-2.7,6-6,6h-188c-3.3,0-6-2.7-6-6V415.3L281.2,415.3z"/>
	<path class="st3" d="M287.2,225.3h188c3.3,0,6,2.7,6,6v212c0,3.3-2.7,6-6,6h-188c-3.3,0-6-2.7-6-6v-212
		C281.2,228,283.9,225.3,287.2,225.3z"/>
	<path class="st14" d="M286.7,225.3h189.1c3,0,5.4,2.4,5.4,5.4c0,0,0,0,0,0v12.6l0,0h-200l0,0v-12.6
		C281.2,227.8,283.7,225.3,286.7,225.3C286.7,225.3,286.7,225.3,286.7,225.3z"/>
	<path class="st3" d="M286.7,225.3h189.1c3,0,5.4,2.4,5.4,5.4c0,0,0,0,0,0v12.6l0,0h-200l0,0v-12.6
		C281.2,227.8,283.7,225.3,286.7,225.3C286.7,225.3,286.7,225.3,286.7,225.3z"/>
	<rect x="281.2" y="243.3" class="st15" width="200" height="8"/>
	<rect x="281.2" y="243.3" class="st3" width="200" height="8"/>
	<circle class="st16" cx="292.4" cy="234.3" r="3"/>
	<circle class="st3" cx="292.4" cy="234.3" r="3"/>
	<circle class="st17" cx="304.7" cy="234.3" r="3"/>
	<circle class="st3" cx="304.7" cy="234.3" r="3"/>
	<circle class="st18" cx="315.9" cy="234.3" r="3"/>
	<circle class="st3" cx="315.9" cy="234.3" r="3"/>
	<path class="st19" d="M332.7,231.3h62c1.7,0,3,1.3,3,3l0,0c0,1.7-1.3,3-3,3h-62c-1.7,0-3-1.3-3-3l0,0
		C329.7,232.7,331.1,231.3,332.7,231.3z"/>
	<circle class="st3" cx="47.4" cy="330.3" r="20.4"/>
	<circle class="st3" cx="47.4" cy="330.3" r="8.7"/>
	<path class="st3" d="M79.1,301.1l-12.6,7.3l0,0c-0.9-0.8-1.9-1.5-2.9-2.2l0,0l3.8-14.1c0.6-2.3-0.8-4.7-3.1-5.4l-9.8-2.6
		c-2.3-0.6-4.7,0.8-5.4,3.1l-3.8,14.1h0c-1.2,0.1-2.4,0.2-3.6,0.5l0,0l-7.3-12.6c-1.2-2.1-3.9-2.8-6-1.6c0,0,0,0,0,0l-8.8,5.1
		c-2.1,1.2-2.8,3.9-1.6,6c0,0,0,0,0,0l7.3,12.6l0,0c-0.8,0.9-1.5,1.9-2.2,2.9l0,0l-14.1-3.8c-2.3-0.6-4.7,0.8-5.4,3.1l-2.6,9.8
		c-0.6,2.3,0.8,4.7,3.1,5.4l14.1,3.8l0,0c0.1,1.2,0.2,2.4,0.5,3.6l0,0l-12.6,7.3c-2.1,1.2-2.8,3.9-1.6,6l5.1,8.8
		c1.2,2.1,3.9,2.8,6,1.6c0,0,0,0,0,0l12.6-7.3l0,0c0.9,0.8,1.9,1.6,2.9,2.3l-0.1,0l-3.8,14.1c-0.6,2.3,0.8,4.7,3.1,5.4l9.8,2.6
		c2.3,0.6,4.7-0.8,5.4-3.1l3.8-14.1l-0.1,0c1.2-0.1,2.5-0.2,3.7-0.5l-0.1,0l7.3,12.6c1.2,2.1,3.9,2.8,6,1.6c0,0,0,0,0,0L75,368
		c2.1-1.2,2.8-3.9,1.6-6l-7.3-12.6l-0.1,0c0.8-0.9,1.6-1.9,2.3-3l0,0.1l14.1,3.8c2.3,0.6,4.7-0.8,5.4-3.1c0,0,0,0,0,0l2.6-9.8
		c0.6-2.3-0.8-4.7-3.1-5.4c0,0,0,0,0,0l-14.1-3.8l0,0.1c-0.1-1.2-0.2-2.5-0.5-3.7l0,0l12.6-7.3c2.1-1.2,2.8-3.9,1.6-6l-5.1-8.8
		C83.9,300.6,81.2,299.9,79.1,301.1z"/>
	<g class="st20">
		<circle class="st21" cx="321.2" cy="284.9" r="7.7"/>
		<circle class="st21" cx="321.2" cy="284.9" r="3.3"/>
		<path class="st21" d="M337.5,285.6l-5.3-1.4v0c0-0.5-0.1-0.9-0.2-1.4l0,0l4.8-2.8c0.8-0.5,1.1-1.5,0.6-2.3l-1.9-3.3
			c-0.5-0.8-1.5-1.1-2.3-0.6c0,0,0,0,0,0l-4.8,2.8v0c-0.3-0.3-0.7-0.6-1.1-0.8h0l1.4-5.3c0.2-0.9-0.3-1.8-1.2-2l-3.7-1
			c-0.9-0.2-1.8,0.3-2,1.2l-1.4,5.3h0c-0.5,0-0.9,0.1-1.4,0.2h0l-2.8-4.8c-0.5-0.8-1.5-1.1-2.3-0.6l-3.3,1.9
			c-0.8,0.5-1.1,1.5-0.6,2.3l2.8,4.8l0,0c-0.3,0.3-0.6,0.7-0.8,1.1v0l-5.3-1.4c-0.9-0.2-1.8,0.3-2,1.2c0,0,0,0,0,0l-1,3.7
			c-0.2,0.9,0.3,1.8,1.2,2l5.3,1.4l0,0c0,0.5,0.1,0.9,0.2,1.4l0,0l-4.8,2.8c-0.8,0.5-1.1,1.5-0.6,2.3c0,0,0,0,0,0l1.9,3.3
			c0.5,0.8,1.5,1.1,2.3,0.6c0,0,0,0,0,0l4.8-2.8l0,0c0.4,0.3,0.7,0.6,1.1,0.9l0,0l-1.4,5.3c-0.2,0.9,0.3,1.8,1.2,2c0,0,0,0,0,0
			l3.7,1c0.9,0.2,1.8-0.3,2-1.2l1.4-5.3l0,0c0.5,0,0.9-0.1,1.4-0.2l0,0l2.8,4.8c0.5,0.8,1.5,1.1,2.3,0.6l3.3-1.9
			c0.8-0.5,1.1-1.5,0.6-2.3l-2.8-4.8l0,0c0.3-0.4,0.6-0.7,0.9-1.1v0l5.3,1.4c0.9,0.2,1.8-0.3,2-1.2l1-3.7
			C338.9,286.7,338.4,285.8,337.5,285.6z"/>
	</g>
	<g class="st22">
		<circle class="st1" cx="701.4" cy="121.2" r="19.1"/>
		<circle class="st1" cx="701.4" cy="121.2" r="8.2"/>
		<path class="st1" d="M731.1,93.8l-11.8,6.8l0,0c-0.9-0.8-1.8-1.5-2.7-2.1l0,0l3.5-13.2c0.6-2.2-0.7-4.4-2.9-5l-9.2-2.5
			c-2.2-0.6-4.4,0.7-5,2.9c0,0,0,0,0,0L699.5,94l0,0c-1.1,0.1-2.3,0.2-3.4,0.4l0,0l-6.8-11.8c-1.1-2-3.6-2.6-5.6-1.5l-8.3,4.8
			c-2,1.1-2.6,3.6-1.5,5.6c0,0,0,0,0,0l6.8,11.8l0,0c-0.7,0.9-1.4,1.8-2.1,2.7v0l-13.2-3.5c-2.2-0.6-4.4,0.7-5,2.9l-2.5,9.2
			c-0.6,2.2,0.7,4.4,2.9,5l13.2,3.5l0,0c0.1,1.1,0.2,2.3,0.4,3.4l0,0l-11.8,6.8c-2,1.1-2.6,3.6-1.5,5.6c0,0,0,0,0,0l4.8,8.3
			c1.1,2,3.6,2.6,5.6,1.5l11.8-6.8l0,0c0.9,0.8,1.8,1.5,2.8,2.1l-0.1,0l-3.5,13.2c-0.6,2.2,0.7,4.4,2.9,5c0,0,0,0,0,0l9.2,2.5
			c2.2,0.6,4.4-0.7,5-2.9c0,0,0,0,0,0l3.5-13.2l-0.1,0c1.2-0.1,2.3-0.2,3.5-0.5l-0.1,0l6.8,11.8c1.1,2,3.6,2.6,5.6,1.5c0,0,0,0,0,0
			l8.3-4.8c2-1.1,2.6-3.6,1.5-5.6c0,0,0,0,0,0l-6.8-11.8l-0.1,0c0.8-0.9,1.5-1.8,2.1-2.8l0,0.1l13.2,3.5c2.2,0.6,4.4-0.7,5-2.9
			l2.5-9.2c0.6-2.2-0.7-4.4-2.9-5l-13.2-3.5l0,0.1c-0.1-1.2-0.2-2.3-0.5-3.4l0,0l11.8-6.8c2-1.1,2.6-3.6,1.5-5.6c0,0,0,0,0,0
			l-4.8-8.3C735.6,93.4,733.1,92.7,731.1,93.8C731.1,93.8,731.1,93.8,731.1,93.8z"/>
	</g>
	<circle class="st3" cx="701.4" cy="121.2" r="19.1"/>
	<circle class="st3" cx="701.4" cy="121.2" r="8.2"/>
	<path class="st3" d="M741.8,122.9l-13.2-3.5l0,0c-0.1-1.1-0.2-2.3-0.4-3.4l0,0l11.8-6.8c2-1.1,2.6-3.6,1.5-5.6c0,0,0,0,0,0
		l-4.8-8.3c-1.1-2-3.6-2.6-5.6-1.5l-11.8,6.8l0,0c-0.9-0.7-1.8-1.4-2.7-2.1h0l3.5-13.2c0.6-2.2-0.7-4.4-2.9-5l-9.2-2.5
		c-2.2-0.6-4.4,0.7-5,2.9c0,0,0,0,0,0L699.5,94h0c-1.1,0.1-2.3,0.2-3.4,0.4l0,0l-6.8-11.8c-1.1-2-3.6-2.6-5.6-1.5l-8.3,4.8
		c-2,1.1-2.6,3.6-1.5,5.6c0,0,0,0,0,0l6.8,11.8l0,0c-0.8,0.9-1.5,1.8-2.1,2.7l0,0l-13.2-3.5c-2.2-0.6-4.4,0.7-5,2.9l-2.5,9.2
		c-0.6,2.2,0.7,4.4,2.9,5l13.2,3.5l0-0.1c0.1,1.2,0.2,2.3,0.5,3.4l0-0.1l-11.8,6.8c-2,1.1-2.6,3.6-1.5,5.6c0,0,0,0,0,0l4.8,8.3
		c1.1,2,3.6,2.6,5.6,1.5l11.8-6.8l0-0.1c0.9,0.8,1.8,1.5,2.8,2.1l-0.1,0l-3.5,13.2c-0.6,2.2,0.7,4.4,2.9,5c0,0,0,0,0,0l9.2,2.5
		c2.2,0.6,4.4-0.7,5-2.9c0,0,0,0,0,0l3.5-13.2l-0.1,0c1.2-0.1,2.3-0.2,3.5-0.5l-0.1,0l6.8,11.8c1.1,2,3.6,2.6,5.6,1.5c0,0,0,0,0,0
		l8.3-4.8c2-1.1,2.6-3.6,1.5-5.6c0,0,0,0,0,0l-6.8-11.8l-0.1,0c0.8-0.9,1.5-1.8,2.1-2.8l0,0.1l13.2,3.5c2.2,0.6,4.4-0.7,5-2.9
		l2.5-9.2C745.3,125.7,744,123.5,741.8,122.9z"/>
	<path class="st1" d="M456.7,122.9h-26.2l-27.3,18.2v-18.2h-19.4c-5,0-9.1-4.1-9.1-9.1v0V63.7c0-5,4.1-9.1,9.1-9.1l0,0h72.9
		c5,0,9.1,4.1,9.1,9.1c0,0,0,0,0,0v50.1C465.8,118.8,461.7,122.9,456.7,122.9C456.7,122.9,456.7,122.9,456.7,122.9z"/>
	<path class="st3" d="M456.7,122.9h-26.2l-27.3,18.2v-18.2h-19.4c-5,0-9.1-4.1-9.1-9.1v0V63.7c0-5,4.1-9.1,9.1-9.1l0,0h72.9
		c5,0,9.1,4.1,9.1,9.1c0,0,0,0,0,0v50.1C465.8,118.8,461.7,122.9,456.7,122.9C456.7,122.9,456.7,122.9,456.7,122.9z"/>
	<path class="st23" d="M457.6,45.3h17l17.7,11.8V45.3h12.5c3.3,0,5.9-2.6,5.9-5.9v0V6.9c0-3.3-2.6-5.9-5.9-5.9l0,0h-47.2
		c-3.3,0-5.9,2.6-5.9,5.9v0v32.5C451.7,42.6,454.4,45.3,457.6,45.3C457.6,45.3,457.6,45.3,457.6,45.3z"/>
	<path class="st3" d="M457.6,45.3h17l17.7,11.8V45.3h12.5c3.3,0,5.9-2.6,5.9-5.9v0V6.9c0-3.3-2.6-5.9-5.9-5.9l0,0h-47.2
		c-3.3,0-5.9,2.6-5.9,5.9v0v32.5C451.7,42.6,454.4,45.3,457.6,45.3C457.6,45.3,457.6,45.3,457.6,45.3z"/>
	<path class="st24" d="M519.2,681.6c0,7.3-5.9,13.2-13.2,13.2s-13.2-5.9-13.2-13.2c0-7.3,5.9-13.2,13.2-13.2
		C513.3,668.3,519.2,674.3,519.2,681.6C519.2,681.6,519.2,681.6,519.2,681.6z"/>
	<path class="st1" d="M497,679.8c-1,0-1.8,0.8-1.8,1.8s0.8,1.8,1.8,1.8c1,0,1.8-0.8,1.8-1.8C498.7,680.6,497.9,679.8,497,679.8
		C497,679.8,497,679.8,497,679.8z M509.6,687.8c-0.8,0.5-1.1,1.6-0.6,2.4s1.6,1.1,2.4,0.6s1.1-1.6,0.6-2.4c0,0,0,0,0,0
		C511.5,687.6,510.4,687.3,509.6,687.8L509.6,687.8z M500.8,681.6c0-1.7,0.8-3.3,2.2-4.2l-1.3-2.2c-1.6,1-2.7,2.6-3.2,4.5
		c1.1,0.9,1.2,2.4,0.4,3.5c-0.1,0.1-0.2,0.3-0.4,0.4c0.5,1.8,1.6,3.4,3.2,4.5l1.3-2.2C501.6,684.8,500.8,683.2,500.8,681.6
		L500.8,681.6z M506,676.4c2.7,0,4.9,2,5.1,4.7l2.5,0c-0.1-1.9-0.9-3.7-2.3-5c-1.3,0.5-2.7-0.2-3.2-1.4c-0.1-0.2-0.1-0.3-0.1-0.5
		c-1.8-0.5-3.8-0.3-5.5,0.5l1.2,2.2C504.5,676.6,505.2,676.4,506,676.4L506,676.4z M506,686.7c-0.8,0-1.5-0.2-2.2-0.5l-1.2,2.2
		c1.7,0.8,3.6,1,5.5,0.5c0.2-1.4,1.5-2.3,2.8-2.1c0.2,0,0.3,0.1,0.5,0.1c1.3-1.3,2.2-3.1,2.3-5l-2.5,0
		C510.9,684.7,508.6,686.7,506,686.7L506,686.7z M509.6,675.3c0.8,0.5,1.9,0.2,2.4-0.6c0.5-0.8,0.2-1.9-0.6-2.4
		c-0.8-0.5-1.9-0.2-2.4,0.6C508.4,673.7,508.7,674.8,509.6,675.3C509.6,675.3,509.6,675.3,509.6,675.3L509.6,675.3z"/>
	<polygon class="st25" points="62.4,562.4 90.4,546.1 90.3,576.6 62.3,592.9 	"/>
	<polygon class="st3" points="62.4,562.4 90.4,546.1 90.3,576.6 62.3,592.9 	"/>
	<polygon class="st26" points="35.8,547 63.9,530.7 90.4,546.1 62.4,562.4 	"/>
	<polygon class="st27" points="62.4,562.4 62.3,592.9 35.7,577.5 35.8,547 	"/>
	<polygon class="st3" points="35.8,547 63.9,530.7 90.4,546.1 62.4,562.4 	"/>
	<polygon class="st3" points="62.4,562.4 62.3,592.9 35.7,577.5 35.8,547 	"/>
	<circle class="st28" cx="41.8" cy="513.3" r="6"/>
	<circle class="st3" cx="41.8" cy="513.3" r="6"/>
	<circle class="st28" cx="62.3" cy="513.3" r="6"/>
	<circle class="st3" cx="62.3" cy="513.3" r="6"/>
	<circle class="st28" cx="82.8" cy="513.3" r="6"/>
	<circle class="st29" cx="766.5" cy="390.6" r="39.5"/>
	<circle class="st3" cx="82.8" cy="513.3" r="6"/>
	<polygon class="st30" points="767,391 745.7,378.6 745.7,401.8 767.1,414.2 	"/>
	<polygon class="st3" points="767,391 745.7,378.6 745.7,401.8 767.1,414.2 	"/>
	<polygon class="st31" points="787.2,379.4 765.9,367 745.7,378.6 767,391 	"/>
	<polygon class="st3" points="787.2,379.4 765.9,367 745.7,378.6 767,391 	"/>
	<polygon class="st32" points="767,391 767.1,414.2 787.3,402.6 787.2,379.4 	"/>
	<polygon class="st3" points="767,391 767.1,414.2 787.3,402.6 787.2,379.4 	"/>
	<circle class="st3" cx="766.5" cy="390.6" r="39.5"/>
	<path class="st25" d="M579.6,144.1h89.6c6.6,0,11.9,5.3,11.9,11.9v35.7c0,6.6-5.3,11.9-11.9,11.9h-89.6c-6.6,0-11.9-5.3-11.9-11.9
		V156C567.7,149.4,573.1,144.1,579.6,144.1z"/>
	<path class="st3" d="M579.6,144.1h89.6c6.6,0,11.9,5.3,11.9,11.9v35.7c0,6.6-5.3,11.9-11.9,11.9h-89.6c-6.6,0-11.9-5.3-11.9-11.9
		V156C567.7,149.4,573.1,144.1,579.6,144.1z"/>
	<path class="st27" d="M674.9,415.1h70c5,0,9,4,9,9v27.1c0,5-4,9-9,9h-70c-5,0-9-4-9-9v-27.1C665.8,419.1,669.9,415.1,674.9,415.1z"
		/>
	<path class="st3" d="M674.9,415.1h70c5,0,9,4,9,9v27.1c0,5-4,9-9,9h-70c-5,0-9-4-9-9v-27.1C665.8,419.1,669.9,415.1,674.9,415.1z"
		/>
	<path class="st1" d="M679.4,437.4c0-6.5,4.8-10.8,11-10.8c3.4-0.1,6.7,1.7,8.4,4.7l-3.1,1.6c-1.1-1.9-3.1-3-5.3-3
		c-4.1,0-7.2,3.1-7.2,7.6c0,4.4,3.1,7.6,7.2,7.6c2.2,0,4.2-1.2,5.3-3l3.1,1.6c-1.7,3-5,4.8-8.4,4.7
		C684.2,448.2,679.4,443.9,679.4,437.4z"/>
	<path class="st1" d="M702.7,444.9l2.1-2.9c1.7,1.9,4.1,2.9,6.6,2.9c3,0,4.2-1.5,4.2-2.9c0-4.4-12.2-1.7-12.2-9.3
		c0-3.5,3-6.1,7.6-6.1c2.9-0.1,5.7,1,7.8,2.9l-2.1,2.7c-1.6-1.6-3.8-2.5-6.1-2.4c-2.1,0-3.5,1.1-3.5,2.6c0,3.9,12.2,1.5,12.2,9.3
		c0,3.5-2.5,6.5-8.1,6.5C708.1,448.4,705,447.2,702.7,444.9z"/>
	<path class="st1" d="M723.7,444.9l2.1-2.9c1.7,1.9,4.1,2.9,6.6,2.9c3,0,4.2-1.5,4.2-2.9c0-4.4-12.2-1.7-12.2-9.3
		c0-3.5,3-6.1,7.6-6.1c2.9-0.1,5.7,1,7.8,2.9l-2.1,2.7c-1.6-1.6-3.8-2.5-6.1-2.4c-2.1,0-3.5,1.1-3.5,2.6c0,3.9,12.2,1.5,12.2,9.3
		c0,3.5-2.5,6.5-8.1,6.5C729.1,448.4,726,447.2,723.7,444.9z"/>
	<path class="st1" d="M584.6,187.1v-26.6h11.7c5.6,0,8.7,3.8,8.7,8.4c0,4.5-3.1,8.3-8.7,8.3h-7.1v10L584.6,187.1z M600.2,168.8
		c0-2.6-1.9-4.2-4.5-4.2h-6.4v8.4h6.4C598.4,173,600.2,171.3,600.2,168.8L600.2,168.8z"/>
	<path class="st1" d="M630.5,187.1v-11.7h-13.9v11.7h-4.7v-26.6h4.7v10.9h13.9v-10.9h4.7v26.6L630.5,187.1z"/>
	<path class="st1" d="M643.8,187.1v-26.6h11.7c5.6,0,8.7,3.8,8.7,8.4c0,4.5-3.1,8.3-8.7,8.3h-7.1v10L643.8,187.1z M659.4,168.8
		c0-2.6-1.9-4.2-4.5-4.2h-6.4v8.4h6.4C657.5,173,659.4,171.3,659.4,168.8L659.4,168.8z"/>
	<path class="st33" d="M448.3,424.6c0.3,0.4,0.5,0.4,0.7,0.3s11.5-3.9,11.8-4s0.2-0.2,0.1-0.4s-3.9-5.3-4-5.6s-0.3-0.2-0.6-0.1
		l-11.9,3.1C444.3,417.8,448,424.2,448.3,424.6L448.3,424.6z"/>
	<path class="st33" d="M461.7,419.4v-6l-3.7,1C459,415.8,460.6,417.9,461.7,419.4L461.7,419.4z"/>
	<path class="st33" d="M458,407.1c-0.2,0-4.3,0.8-4.5,0.8s-0.2,0.2-0.1,0.3l3.6,4.9c0,0,4.4-1.1,4.6-1.1l0.1,0v-0.7
		c-0.8-1-3-3.8-3.2-4C458.4,407,458.2,407,458,407.1L458,407.1z"/>
	<path class="st33" d="M432.4,399.4c0.9,0,1,0.2,1.3,0.7l9.7,16.3l12.2-2.9c-0.7-1-3.8-5.3-4.1-5.7c-0.3-0.5,0-0.7,0.6-0.8
		s5.2-0.9,5.6-0.9s0.7-0.2,1.4,0.6c0.3,0.4,1.5,1.8,2.5,3.1v-7.6c0-3.7-3-6.7-6.8-6.8h-22.5c-1.8,0-3.5,0.7-4.8,2
		c-0.7,0.7-1.3,1.6-1.6,2.5C428.3,399.7,431.8,399.4,432.4,399.4L432.4,399.4z"/>
	<path class="st33" d="M449.4,426.8c-1,0.3-1.5,0.5-2.2-0.5c-0.5-0.7-3.2-5.6-4.6-8c-2.5,0.7-7.1,1.9-8.5,2.2
		c-0.8,0.3-1.7-0.1-2.1-0.9c-0.2-0.3-4-8.6-6.4-13.8v18.9c0,3.7,3,6.7,6.8,6.8H455c3.7,0,6.7-3,6.8-6.8v-2.2
		C459,423.4,450.1,426.6,449.4,426.8L449.4,426.8z"/>
	<path class="st33" d="M434.2,418.6c0.4-0.1,7.2-1.7,7.4-1.8s0.2-0.1,0.1-0.4l-9.1-15.8c-0.1-0.1-0.1-0.2-0.3-0.2
		c-0.2,0-5.3,0.5-6.5,0.6c0,0.2-0.1,0.5-0.1,0.8c1.2,2.4,8,16.6,8.1,16.7S433.9,418.7,434.2,418.6L434.2,418.6z"/>
	<line class="st34" x1="343.7" y1="281.3" x2="437.7" y2="281.3"/>
	<line class="st34" x1="343.7" y1="289.3" x2="403.7" y2="289.3"/>
	<line class="st35" x1="315.7" y1="328.3" x2="409.7" y2="328.3"/>
	<line class="st34" x1="315.7" y1="337" x2="375.7" y2="337"/>
	<line class="st34" x1="363.7" y1="345.7" x2="398.7" y2="345.7"/>
	<line class="st36" x1="315.7" y1="345.7" x2="357.7" y2="345.7"/>
	<line class="st35" x1="315.7" y1="354.3" x2="351.7" y2="354.3"/>
	<path class="st37" d="M319.7,370.7c-2.2,0-4,1.8-4,4c0,2.2,1.8,4,4,4h80.7v-8H319.7z"/>
	<path class="st21" d="M319.7,370.7h126c2.2,0,4,1.8,4,4l0,0c0,2.2-1.8,4-4,4h-126c-2.2,0-4-1.8-4-4l0,0
		C315.7,372.5,317.5,370.7,319.7,370.7z"/>
	<path class="st12" d="M243,475.3h273.5c1.2,0,2.3,1,2.3,2.3v8.5c0,1.2-1,2.3-2.3,2.3H243c-1.2,0-2.3-1-2.3-2.3v-8.5
		C240.7,476.3,241.7,475.3,243,475.3z"/>
	<rect x="240.7" y="475.3" class="st3" width="278" height="13"/>
	<path class="st14" d="M499.7,507.3h16c1.7,0,3,1.3,3,3v6c0,1.7-1.3,3-3,3h-16c-1.7,0-3-1.3-3-3v-6
		C496.7,508.7,498.1,507.3,499.7,507.3z"/>
	<path class="st14" d="M467.7,507.3h16c1.7,0,3,1.3,3,3v6c0,1.7-1.3,3-3,3h-16c-1.7,0-3-1.3-3-3v-6
		C464.7,508.7,466.1,507.3,467.7,507.3z"/>
	<path class="st14" d="M435.7,507.3h16c1.7,0,3,1.3,3,3v6c0,1.7-1.3,3-3,3h-16c-1.7,0-3-1.3-3-3v-6
		C432.7,508.7,434.1,507.3,435.7,507.3z"/>
	<path class="st14" d="M403.7,507.3h16c1.7,0,3,1.3,3,3v6c0,1.7-1.3,3-3,3h-16c-1.7,0-3-1.3-3-3v-6
		C400.7,508.7,402.1,507.3,403.7,507.3z"/>
	<path class="st14" d="M371.7,507.3h16c1.7,0,3,1.3,3,3v6c0,1.7-1.3,3-3,3h-16c-1.7,0-3-1.3-3-3v-6
		C368.7,508.7,370.1,507.3,371.7,507.3z"/>
	<path class="st14" d="M339.7,507.3h16c1.7,0,3,1.3,3,3v6c0,1.7-1.3,3-3,3h-16c-1.7,0-3-1.3-3-3v-6
		C336.7,508.7,338.1,507.3,339.7,507.3z"/>
	<path class="st14" d="M307.7,507.3h16c1.7,0,3,1.3,3,3v6c0,1.7-1.3,3-3,3h-16c-1.7,0-3-1.3-3-3v-6
		C304.7,508.7,306.1,507.3,307.7,507.3z"/>
	<path class="st14" d="M275.7,507.3h16c1.7,0,3,1.3,3,3v6c0,1.7-1.3,3-3,3h-16c-1.7,0-3-1.3-3-3v-6
		C272.7,508.7,274.1,507.3,275.7,507.3z"/>
	<path class="st14" d="M243.7,507.3h16c1.7,0,3,1.3,3,3v6c0,1.7-1.3,3-3,3h-16c-1.7,0-3-1.3-3-3v-6
		C240.7,508.7,242.1,507.3,243.7,507.3z"/>
	<path class="st14" d="M435.7,532.8h16c1.7,0,3,1.3,3,3v16c0,1.7-1.3,3-3,3h-16c-1.7,0-3-1.3-3-3v-16
		C432.7,534.2,434.1,532.8,435.7,532.8z"/>
	<path class="st14" d="M403.7,532.8h16c1.7,0,3,1.3,3,3v16c0,1.7-1.3,3-3,3h-16c-1.7,0-3-1.3-3-3v-16
		C400.7,534.2,402.1,532.8,403.7,532.8z"/>
	<path class="st14" d="M371.7,532.8h16c1.7,0,3,1.3,3,3v16c0,1.7-1.3,3-3,3h-16c-1.7,0-3-1.3-3-3v-16
		C368.7,534.2,370.1,532.8,371.7,532.8z"/>
	<path class="st14" d="M339.7,532.8h16c1.7,0,3,1.3,3,3v16c0,1.7-1.3,3-3,3h-16c-1.7,0-3-1.3-3-3v-16
		C336.7,534.2,338.1,532.8,339.7,532.8z"/>
	<path class="st14" d="M307.7,532.8h16c1.7,0,3,1.3,3,3v16c0,1.7-1.3,3-3,3h-16c-1.7,0-3-1.3-3-3v-16
		C304.7,534.2,306.1,532.8,307.7,532.8z"/>
	<path class="st14" d="M275.7,532.8h16c1.7,0,3,1.3,3,3v16c0,1.7-1.3,3-3,3h-16c-1.7,0-3-1.3-3-3v-16
		C272.7,534.2,274.1,532.8,275.7,532.8z"/>
	<path class="st14" d="M243.7,532.8h16c1.7,0,3,1.3,3,3v16c0,1.7-1.3,3-3,3h-16c-1.7,0-3-1.3-3-3v-16
		C240.7,534.2,242.1,532.8,243.7,532.8z"/>
	<path class="st14" d="M499.7,532.8h16c1.7,0,3,1.3,3,3v47.5c0,1.7-1.3,3-3,3h-16c-1.7,0-3-1.3-3-3v-47.5
		C496.7,534.2,498.1,532.8,499.7,532.8z"/>
	<path class="st14" d="M483.7,532.8h-16c-1.7,0-3,1.3-3,3v25.5c0,1.7-1.3,3-3,3h-26c-1.7,0-3,1.3-3,3v16c0,1.7,1.3,3,3,3h48
		c1.7,0,3-1.3,3-3v-47.5C486.7,534.2,485.4,532.8,483.7,532.8z"/>
	<path class="st14" d="M403.7,564.3h16c1.7,0,3,1.3,3,3v16c0,1.7-1.3,3-3,3h-16c-1.7,0-3-1.3-3-3v-16
		C400.7,565.7,402.1,564.3,403.7,564.3z"/>
	<path class="st14" d="M371.7,564.3h16c1.7,0,3,1.3,3,3v16c0,1.7-1.3,3-3,3h-16c-1.7,0-3-1.3-3-3v-16
		C368.7,565.7,370.1,564.3,371.7,564.3z"/>
	<path class="st14" d="M339.7,564.3h16c1.7,0,3,1.3,3,3v16c0,1.7-1.3,3-3,3h-16c-1.7,0-3-1.3-3-3v-16
		C336.7,565.7,338.1,564.3,339.7,564.3z"/>
	<path class="st14" d="M307.7,564.3h16c1.7,0,3,1.3,3,3v16c0,1.7-1.3,3-3,3h-16c-1.7,0-3-1.3-3-3v-16
		C304.7,565.7,306.1,564.3,307.7,564.3z"/>
	<path class="st14" d="M243.7,564.3h48c1.7,0,3,1.3,3,3v16c0,1.7-1.3,3-3,3h-48c-1.7,0-3-1.3-3-3v-16
		C240.7,565.7,242.1,564.3,243.7,564.3z"/>
	<path class="st14" d="M499.7,595.8h16c1.7,0,3,1.3,3,3v16c0,1.7-1.3,3-3,3h-16c-1.7,0-3-1.3-3-3v-16
		C496.7,597.2,498.1,595.8,499.7,595.8z"/>
	<path class="st14" d="M467.7,595.8h16c1.7,0,3,1.3,3,3v16c0,1.7-1.3,3-3,3h-16c-1.7,0-3-1.3-3-3v-16
		C464.7,597.2,466.1,595.8,467.7,595.8z"/>
	<path class="st14" d="M435.7,595.8h16c1.7,0,3,1.3,3,3v16c0,1.7-1.3,3-3,3h-16c-1.7,0-3-1.3-3-3v-16
		C432.7,597.2,434.1,595.8,435.7,595.8z"/>
	<path class="st14" d="M339.7,595.8h80c1.7,0,3,1.3,3,3v16c0,1.7-1.3,3-3,3h-80c-1.7,0-3-1.3-3-3v-16
		C336.7,597.2,338.1,595.8,339.7,595.8z"/>
	<path class="st14" d="M307.7,595.8h16c1.7,0,3,1.3,3,3v16c0,1.7-1.3,3-3,3h-16c-1.7,0-3-1.3-3-3v-16
		C304.7,597.2,306.1,595.8,307.7,595.8z"/>
	<path class="st14" d="M275.7,595.8h16c1.7,0,3,1.3,3,3v16c0,1.7-1.3,3-3,3h-16c-1.7,0-3-1.3-3-3v-16
		C272.7,597.2,274.1,595.8,275.7,595.8z"/>
	<path class="st14" d="M243.7,595.8h16c1.7,0,3,1.3,3,3v16c0,1.7-1.3,3-3,3h-16c-1.7,0-3-1.3-3-3v-16
		C240.7,597.2,242.1,595.8,243.7,595.8z"/>
	<path class="st3" d="M499.7,507.3h16c1.7,0,3,1.3,3,3v6c0,1.7-1.3,3-3,3h-16c-1.7,0-3-1.3-3-3v-6
		C496.7,508.7,498.1,507.3,499.7,507.3z"/>
	<path class="st3" d="M467.7,507.3h16c1.7,0,3,1.3,3,3v6c0,1.7-1.3,3-3,3h-16c-1.7,0-3-1.3-3-3v-6
		C464.7,508.7,466.1,507.3,467.7,507.3z"/>
	<path class="st3" d="M435.7,507.3h16c1.7,0,3,1.3,3,3v6c0,1.7-1.3,3-3,3h-16c-1.7,0-3-1.3-3-3v-6
		C432.7,508.7,434.1,507.3,435.7,507.3z"/>
	<path class="st3" d="M403.7,507.3h16c1.7,0,3,1.3,3,3v6c0,1.7-1.3,3-3,3h-16c-1.7,0-3-1.3-3-3v-6
		C400.7,508.7,402.1,507.3,403.7,507.3z"/>
	<path class="st3" d="M371.7,507.3h16c1.7,0,3,1.3,3,3v6c0,1.7-1.3,3-3,3h-16c-1.7,0-3-1.3-3-3v-6
		C368.7,508.7,370.1,507.3,371.7,507.3z"/>
	<path class="st3" d="M339.7,507.3h16c1.7,0,3,1.3,3,3v6c0,1.7-1.3,3-3,3h-16c-1.7,0-3-1.3-3-3v-6
		C336.7,508.7,338.1,507.3,339.7,507.3z"/>
	<path class="st3" d="M307.7,507.3h16c1.7,0,3,1.3,3,3v6c0,1.7-1.3,3-3,3h-16c-1.7,0-3-1.3-3-3v-6
		C304.7,508.7,306.1,507.3,307.7,507.3z"/>
	<path class="st3" d="M275.7,507.3h16c1.7,0,3,1.3,3,3v6c0,1.7-1.3,3-3,3h-16c-1.7,0-3-1.3-3-3v-6
		C272.7,508.7,274.1,507.3,275.7,507.3z"/>
	<path class="st3" d="M243.7,507.3h16c1.7,0,3,1.3,3,3v6c0,1.7-1.3,3-3,3h-16c-1.7,0-3-1.3-3-3v-6
		C240.7,508.7,242.1,507.3,243.7,507.3z"/>
	<path class="st3" d="M435.7,532.8h16c1.7,0,3,1.3,3,3v16c0,1.7-1.3,3-3,3h-16c-1.7,0-3-1.3-3-3v-16
		C432.7,534.2,434.1,532.8,435.7,532.8z"/>
	<path class="st3" d="M403.7,532.8h16c1.7,0,3,1.3,3,3v16c0,1.7-1.3,3-3,3h-16c-1.7,0-3-1.3-3-3v-16
		C400.7,534.2,402.1,532.8,403.7,532.8z"/>
	<path class="st3" d="M371.7,532.8h16c1.7,0,3,1.3,3,3v16c0,1.7-1.3,3-3,3h-16c-1.7,0-3-1.3-3-3v-16
		C368.7,534.2,370.1,532.8,371.7,532.8z"/>
	<path class="st3" d="M339.7,532.8h16c1.7,0,3,1.3,3,3v16c0,1.7-1.3,3-3,3h-16c-1.7,0-3-1.3-3-3v-16
		C336.7,534.2,338.1,532.8,339.7,532.8z"/>
	<path class="st3" d="M307.7,532.8h16c1.7,0,3,1.3,3,3v16c0,1.7-1.3,3-3,3h-16c-1.7,0-3-1.3-3-3v-16
		C304.7,534.2,306.1,532.8,307.7,532.8z"/>
	<path class="st3" d="M275.7,532.8h16c1.7,0,3,1.3,3,3v16c0,1.7-1.3,3-3,3h-16c-1.7,0-3-1.3-3-3v-16
		C272.7,534.2,274.1,532.8,275.7,532.8z"/>
	<path class="st3" d="M243.7,532.8h16c1.7,0,3,1.3,3,3v16c0,1.7-1.3,3-3,3h-16c-1.7,0-3-1.3-3-3v-16
		C240.7,534.2,242.1,532.8,243.7,532.8z"/>
	<path class="st3" d="M499.7,532.8h16c1.7,0,3,1.3,3,3v47.5c0,1.7-1.3,3-3,3h-16c-1.7,0-3-1.3-3-3v-47.5
		C496.7,534.2,498.1,532.8,499.7,532.8z"/>
	<path class="st3" d="M483.7,532.8h-16c-1.7,0-3,1.3-3,3v25.5c0,1.7-1.3,3-3,3h-26c-1.7,0-3,1.3-3,3v16c0,1.7,1.3,3,3,3h48
		c1.7,0,3-1.3,3-3v-47.5C486.7,534.2,485.4,532.8,483.7,532.8z"/>
	<path class="st3" d="M403.7,564.3h16c1.7,0,3,1.3,3,3v16c0,1.7-1.3,3-3,3h-16c-1.7,0-3-1.3-3-3v-16
		C400.7,565.7,402.1,564.3,403.7,564.3z"/>
	<path class="st3" d="M371.7,564.3h16c1.7,0,3,1.3,3,3v16c0,1.7-1.3,3-3,3h-16c-1.7,0-3-1.3-3-3v-16
		C368.7,565.7,370.1,564.3,371.7,564.3z"/>
	<path class="st3" d="M339.7,564.3h16c1.7,0,3,1.3,3,3v16c0,1.7-1.3,3-3,3h-16c-1.7,0-3-1.3-3-3v-16
		C336.7,565.7,338.1,564.3,339.7,564.3z"/>
	<path class="st3" d="M307.7,564.3h16c1.7,0,3,1.3,3,3v16c0,1.7-1.3,3-3,3h-16c-1.7,0-3-1.3-3-3v-16
		C304.7,565.7,306.1,564.3,307.7,564.3z"/>
	<path class="st3" d="M243.7,564.3h48c1.7,0,3,1.3,3,3v16c0,1.7-1.3,3-3,3h-48c-1.7,0-3-1.3-3-3v-16
		C240.7,565.7,242.1,564.3,243.7,564.3z"/>
	<path class="st3" d="M499.7,595.8h16c1.7,0,3,1.3,3,3v16c0,1.7-1.3,3-3,3h-16c-1.7,0-3-1.3-3-3v-16
		C496.7,597.2,498.1,595.8,499.7,595.8z"/>
	<path class="st3" d="M467.7,595.8h16c1.7,0,3,1.3,3,3v16c0,1.7-1.3,3-3,3h-16c-1.7,0-3-1.3-3-3v-16
		C464.7,597.2,466.1,595.8,467.7,595.8z"/>
	<path class="st3" d="M435.7,595.8h16c1.7,0,3,1.3,3,3v16c0,1.7-1.3,3-3,3h-16c-1.7,0-3-1.3-3-3v-16
		C432.7,597.2,434.1,595.8,435.7,595.8z"/>
	<path class="st3" d="M339.7,595.8h80c1.7,0,3,1.3,3,3v16c0,1.7-1.3,3-3,3h-80c-1.7,0-3-1.3-3-3v-16
		C336.7,597.2,338.1,595.8,339.7,595.8z"/>
	<path class="st3" d="M307.7,595.8h16c1.7,0,3,1.3,3,3v16c0,1.7-1.3,3-3,3h-16c-1.7,0-3-1.3-3-3v-16
		C304.7,597.2,306.1,595.8,307.7,595.8z"/>
	<path class="st3" d="M275.7,595.8h16c1.7,0,3,1.3,3,3v16c0,1.7-1.3,3-3,3h-16c-1.7,0-3-1.3-3-3v-16
		C272.7,597.2,274.1,595.8,275.7,595.8z"/>
	<path class="st3" d="M243.7,595.8h16c1.7,0,3,1.3,3,3v16c0,1.7-1.3,3-3,3h-16c-1.7,0-3-1.3-3-3v-16
		C240.7,597.2,242.1,595.8,243.7,595.8z"/>
	<rect x="261.9" y="689.2" class="st38" width="44" height="40"/>
	<rect x="261.9" y="689.2" class="st3" width="44" height="40"/>
	<rect x="257.3" y="720.2" class="st1" width="51.9" height="25.5"/>
	<rect x="257.3" y="720.2" class="st3" width="51.9" height="25.5"/>
	<path class="st11" d="M255.4,745.1h55.8c3.6,0,6.5,2.9,6.5,6.5v116.8l0,0h-68.8l0,0V751.6C248.9,748,251.8,745.1,255.4,745.1z"/>
	<path class="st3" d="M255.4,745.1h55.8c3.6,0,6.5,2.9,6.5,6.5v116.8l0,0h-68.8l0,0V751.6C248.9,748,251.8,745.1,255.4,745.1z"/>
	<circle class="st39" cx="300" cy="733" r="5"/>
	<circle class="st3" cx="300" cy="733" r="5"/>
	<path class="st38" d="M337.9,637.4l1.3,0.8c2.9,1.7,3.9,5.3,2.2,8.2l-25.5,44.2l0,0l-11.7-6.8l0,0l25.5-44.2
		C331.3,636.7,335,635.7,337.9,637.4z"/>
	<path class="st3" d="M337.9,637.4l1.3,0.8c2.9,1.7,3.9,5.3,2.2,8.2l-25.5,44.2l0,0l-11.7-6.8l0,0l25.5-44.2
		C331.3,636.7,335,635.7,337.9,637.4z"/>
	<path class="st40" d="M313.3,575.1h-1.5c-3.3,0-6,2.7-6,6v45c0,1.7-1.3,3-3,3l0,0c-1.7,0-3-1.3-3-3v-53.7c0-3.3-2.7-6-6-6h-1.5
		c-3.3,0-6,2.7-6,6v53.7c0,1.7-1.3,3-3,3l0,0c-1.7,0-3-1.3-3-3v-45c0-3.3-2.7-6-6-6h-1.5c-3.3,0-6,2.7-6,6v45c0,1.7-1.3,3-3,3l0,0
		c-1.7,0-3-1.3-3-3v-30.8c0-3.3-2.7-6-6-6h-1.5c-3.3,0-6,2.7-6,6v88.2c0,6.6,5.4,12,12,12h48c6.6,0,12-5.4,12-12V581.1
		C319.3,577.7,316.6,575.1,313.3,575.1C313.3,575.1,313.3,575.1,313.3,575.1z"/>
	<path class="st3" d="M313.3,575.1h-1.5c-3.3,0-6,2.7-6,6v45c0,1.7-1.3,3-3,3l0,0c-1.7,0-3-1.3-3-3v-53.7c0-3.3-2.7-6-6-6h-1.5
		c-3.3,0-6,2.7-6,6v53.7c0,1.7-1.3,3-3,3l0,0c-1.7,0-3-1.3-3-3v-45c0-3.3-2.7-6-6-6h-1.5c-3.3,0-6,2.7-6,6v45c0,1.7-1.3,3-3,3l0,0
		c-1.7,0-3-1.3-3-3v-30.8c0-3.3-2.7-6-6-6h-1.5c-3.3,0-6,2.7-6,6v88.2c0,6.6,5.4,12,12,12h48c6.6,0,12-5.4,12-12V581.1
		C319.3,577.7,316.6,575.1,313.3,575.1C313.3,575.1,313.3,575.1,313.3,575.1z"/>
	<rect x="370.2" y="777.5" class="st38" width="44" height="40"/>
	<rect x="370.2" y="777.5" class="st3" width="44" height="40"/>
	<path class="st38" d="M370.2,772l-11.7,6.8l0,0L333,734.6c-1.7-2.9-0.7-6.5,2.2-8.2l0,0l1.3-0.8c2.9-1.7,6.5-0.7,8.2,2.2l0,0
		L370.2,772L370.2,772z"/>
	<path class="st3" d="M370.2,772l-11.7,6.8l0,0L333,734.6c-1.7-2.9-0.7-6.5,2.2-8.2l0,0l1.3-0.8c2.9-1.7,6.5-0.7,8.2,2.2l0,0
		L370.2,772L370.2,772z"/>
	<path class="st40" d="M362.2,663.3h1.5c3.3,0,6,2.7,6,6v45c0,1.7,1.3,3,3,3l0,0c1.7,0,3-1.3,3-3v-7.2c0-3.3,2.7-6,6-6h1.5
		c3.3,0,6,2.7,6,6v7.2c0,1.7,1.3,3,3,3l0,0c1.7,0,3-1.3,3-3v-7.2c0-3.3,2.7-6,6-6h1.5c3.3,0,6,2.7,6,6v7.2c0,1.7,1.3,3,3,3l0,0
		c1.7,0,3-1.3,3-3v-7.2c0-3.3,2.7-6,6-6h1.5c3.3,0,6,2.7,6,6v64.7c0,6.6-5.4,12-12,12l0,0h-48c-6.6,0-12-5.4-12-12l0,0V669.3
		C356.2,666,358.9,663.3,362.2,663.3C362.2,663.3,362.2,663.3,362.2,663.3z"/>
	<path class="st3" d="M362.2,663.3h1.5c3.3,0,6,2.7,6,6v45c0,1.7,1.3,3,3,3l0,0c1.7,0,3-1.3,3-3v-7.2c0-3.3,2.7-6,6-6h1.5
		c3.3,0,6,2.7,6,6v7.2c0,1.7,1.3,3,3,3l0,0c1.7,0,3-1.3,3-3v-7.2c0-3.3,2.7-6,6-6h1.5c3.3,0,6,2.7,6,6v7.2c0,1.7,1.3,3,3,3l0,0
		c1.7,0,3-1.3,3-3v-7.2c0-3.3,2.7-6,6-6h1.5c3.3,0,6,2.7,6,6v64.7c0,6.6-5.4,12-12,12l0,0h-48c-6.6,0-12-5.4-12-12l0,0V669.3
		C356.2,666,358.9,663.3,362.2,663.3C362.2,663.3,362.2,663.3,362.2,663.3z"/>
	<rect x="366.3" y="808.5" class="st1" width="51.9" height="25.5"/>
	<rect x="366.3" y="808.5" class="st3" width="51.9" height="25.5"/>
	<path class="st11" d="M364.3,833.4h55.8c3.6,0,6.5,2.9,6.5,6.5v30.3l0,0h-68.8l0,0v-30.3C357.9,836.3,360.8,833.4,364.3,833.4z"/>
	<path class="st3" d="M364.3,833.4h55.8c3.6,0,6.5,2.9,6.5,6.5v30.3l0,0h-68.8l0,0v-30.3C357.9,836.3,360.8,833.4,364.3,833.4z"/>
	<ellipse transform="matrix(0.9239 -0.3827 0.3827 0.9239 -285.5588 206.8834)" class="st3" cx="377.3" cy="821.2" rx="5" ry="5"/>
	<ellipse transform="matrix(0.9239 -0.3827 0.3827 0.9239 -285.5588 206.8834)" class="st39" cx="377.3" cy="821.2" rx="5" ry="5"/>
	<line class="st41" x1="394.2" y1="74.6" x2="448.2" y2="74.6"/>
	<line class="st41" x1="394.2" y1="88.1" x2="436.2" y2="88.1"/>
	<line class="st41" x1="394.2" y1="101.6" x2="418.2" y2="101.6"/>
	<line class="st41" x1="466.4" y1="18.1" x2="493.4" y2="18.1"/>
	<line class="st41" x1="466.4" y1="25.1" x2="483.4" y2="25.1"/>
	<path class="st41" d="M374.7,106.7"/>
	<path class="st41" d="M384.2,225.3"/>
	<line class="st3" x1="465.8" y1="89.2" x2="468.8" y2="89.2"/>
	<path class="st42" d="M476.8,89.2H499c22,0,39.8,17.8,39.8,39.8c0,0,0,0,0,0l0,0c0,22-17.8,39.8-39.8,39.8h-65.6
		c-24.7,0-44.7,20-44.7,44.7c0,0,0,0,0,0v4.9"/>
	<line class="st3" x1="388.7" y1="222.3" x2="388.7" y2="225.3"/>
	<line class="st43" x1="93.6" y1="337.4" x2="219.1" y2="337.4"/>
	<path class="st3" d="M90.4,564.3h26.3c24.9,0,45.1-20.2,45.1-45.1v0v-19c0-24.8,20.1-44.9,44.9-44.9h14.1"/>
	<path class="st43" d="M223.5,92.5h13.6c19.7,0,35.7,16,35.7,35.7l0,0c0,19.7,16,35.7,35.7,35.7c0,0,0,0,0,0h19.7
		c19.7,0,35.7,16,35.7,35.7v25.9"/>
	<path class="st3" d="M538.7,330.3h52.5c19.2,0,34.8-15.6,34.8-34.8c0,0,0,0,0,0v-92"/>
	<circle class="st3" cx="756.4" cy="604.3" r="30.5"/>
	<line class="st43" x1="538.7" y1="391" x2="727" y2="391"/>
	<circle class="st1" cx="728.6" cy="621.7" r="35.4"/>
	<circle class="st3" cx="728.6" cy="621.7" r="35.4"/>
	<line class="st43" x1="693.2" y1="621.7" x2="538.7" y2="621.7"/>
	<circle class="st2" cx="546.2" cy="12.6" r="7.5"/>
	<circle class="st3" cx="546.2" cy="12.6" r="7.5"/>
	<polyline class="st3" points="713.5,653.7 728.6,621.7 763.6,627.1 	"/>
	<path class="st44" d="M647.3,552.7h70c5,0,9,4,9,9v27.1c0,5-4,9-9,9h-70c-5,0-9-4-9-9v-27.1C638.3,556.8,642.3,552.7,647.3,552.7z"
		/>
	<path class="st3" d="M647.3,552.7h70c5,0,9,4,9,9v27.1c0,5-4,9-9,9h-70c-5,0-9-4-9-9v-27.1C638.3,556.8,642.3,552.7,647.3,552.7z"
		/>
	<path class="st1" d="M649.7,583.2l2.1-2.9c1.8,1.9,4.2,3,6.8,3c3.1,0,4.3-1.5,4.3-3c0-4.5-12.5-1.7-12.5-9.6c0-3.6,3.1-6.3,7.9-6.3
		c3-0.1,5.9,1,8.1,3l-2.1,2.8c-1.7-1.6-3.9-2.5-6.3-2.5c-2.2,0-3.6,1.1-3.6,2.7c0,4,12.5,1.6,12.5,9.6c0,3.6-2.6,6.7-8.3,6.7
		C655.2,586.8,652,585.5,649.7,583.2z"/>
	<path class="st1" d="M671.8,575.5c0-6.4,4.6-11.2,11-11.2c6.4,0,11,4.7,11,11.2c0.1,2.9-1,5.6-2.9,7.8l1.8,2l-2.6,2.2l-1.9-2.1
		c-1.7,0.9-3.5,1.3-5.4,1.3C676.3,586.7,671.8,581.9,671.8,575.5z M685.8,582.6l-2.7-3l2.7-2.2l2.7,3c1-1.5,1.5-3.2,1.5-4.9
		c0-4.5-2.8-7.8-7.1-7.8c-4.4,0-7.1,3.3-7.1,7.8c0,4.4,2.8,7.8,7.1,7.8C683.9,583.3,684.9,583.1,685.8,582.6L685.8,582.6z"/>
	<path class="st1" d="M699.6,586.3v-21.6h3.8v18.2h9.5v3.3L699.6,586.3z"/>
	<path class="st45" d="M32.9,112.5h106.7c6,0,10.8,4.8,10.8,10.8v30.6c0,6-4.8,10.8-10.8,10.8H32.9c-6,0-10.8-4.8-10.8-10.8v-30.6
		C22.1,117.3,27,112.5,32.9,112.5z"/>
	<path class="st3" d="M32.9,112.5h106.7c6,0,10.8,4.8,10.8,10.8v30.6c0,6-4.8,10.8-10.8,10.8H32.9c-6,0-10.8-4.8-10.8-10.8v-30.6
		C22.1,117.3,27,112.5,32.9,112.5z"/>
	<path class="st1" d="M53.7,150.4V140H41.4v10.4h-4.1v-23.7h4.1v9.6h12.3v-9.6h4.1v23.7H53.7z"/>
	<path class="st1" d="M71.2,150.4v-20h-7.2v-3.7h18.5v3.7h-7.2v20H71.2z"/>
	<path class="st1" d="M109.1,150.4v-18.3l-7.2,18.3h-1.8l-7.3-18.3v18.3h-4.1v-23.7h5.9L101,143l6.4-16.2h5.9v23.7H109.1z"/>
	<path class="st1" d="M120.7,150.4v-23.7h4.1v20h10.4v3.7H120.7z"/>
</g>
</svg>
