<?xml version="1.0" encoding="utf-8"?>
<!-- Generator: Adobe Illustrator 24.0.3, SVG Export Plug-In . SVG Version: 6.00 Build 0)  -->
<!DOCTYPE svg PUBLIC "-//W3C//DTD SVG 1.1//EN" "http://www.w3.org/Graphics/SVG/1.1/DTD/svg11.dtd" [
	<!ENTITY ns_extend "http://ns.adobe.com/Extensibility/1.0/">
	<!ENTITY ns_ai "http://ns.adobe.com/AdobeIllustrator/10.0/">
	<!ENTITY ns_graphs "http://ns.adobe.com/Graphs/1.0/">
	<!ENTITY ns_vars "http://ns.adobe.com/Variables/1.0/">
	<!ENTITY ns_imrep "http://ns.adobe.com/ImageReplacement/1.0/">
	<!ENTITY ns_sfw "http://ns.adobe.com/SaveForWeb/1.0/">
	<!ENTITY ns_custom "http://ns.adobe.com/GenericCustomNamespace/1.0/">
	<!ENTITY ns_adobe_xpath "http://ns.adobe.com/XPath/1.0/">
]>
<svg version="1.1" id="Layer_1" xmlns:x="&ns_extend;" xmlns:i="&ns_ai;" xmlns:graph="&ns_graphs;"
	 xmlns="http://www.w3.org/2000/svg" xmlns:xlink="http://www.w3.org/1999/xlink" x="0px" y="0px" viewBox="0 0 637.8 337.6"
	 style="enable-background:new 0 0 637.8 337.6;" xml:space="preserve">
<style type="text/css">
	.st0{fill:url(#SVGID_1_);stroke:#4D4D4D;stroke-width:16;}
	.st1{fill:#008080;stroke:#333333;stroke-width:8.238;}
	.st2{fill:none;stroke:#C8AB37;stroke-width:5.4718;stroke-linecap:round;stroke-linejoin:round;}
	.st3{fill:none;stroke:#000000;stroke-width:2;}
	.st4{fill:none;stroke:#000000;}
	.st5{fill:none;stroke:#000000;stroke-width:3.009;}
	.st6{fill:#4D4D4D;stroke:#333333;stroke-width:6.7842;}
	.st7{fill:#CCCCCC;stroke:#333333;stroke-width:0.8342;}
	.st8{fill:#CCCCCC;stroke:#4D4D4D;stroke-width:1.8911;}
	.st9{fill:#999999;stroke:#000000;}
	.st10{fill:#F2F2F2;stroke:#000000;stroke-width:0.7651;stroke-miterlimit:3.0603;}
	.st11{stroke:#000000;}
	.st12{fill:url(#SVGID_2_);}
</style>
<metadata>
	<sfw  xmlns="&ns_sfw;">
		<slices></slices>
		<sliceSourceBounds  bottomLeftOrigin="true" height="337.6" width="637.8" x="0" y="0"></sliceSourceBounds>
	</sfw>
</metadata>
<g transform="translate(-54.312 -114.79)">
	
		<linearGradient id="SVGID_1_" gradientUnits="userSpaceOnUse" x1="-151.3442" y1="801.2066" x2="47.6038" y2="408.8987" gradientTransform="matrix(8.614778e-17 1.4069 1.5009 -9.190362e-17 -376.5369 281.2725)">
		<stop  offset="0" style="stop-color:#B3B3B3"/>
		<stop  offset="1" style="stop-color:#666666"/>
	</linearGradient>
	<path class="st0" d="M684.1,182.8v201.5c0,33.2-26.9,60-60,60l0,0H122.3c-33.2,0-60-26.9-60-60l0,0V182.8c0-33.2,26.9-60,60-60
		h501.7C657.2,122.8,684.1,149.7,684.1,182.8L684.1,182.8"/>
	<path class="st1" d="M105,148.6h295.1c6.4,0,11.5,5.2,11.5,11.5v222.9c0,6.4-5.2,11.5-11.5,11.5H105c-6.4,0-11.5-5.2-11.5-11.5
		V160.2C93.5,153.8,98.6,148.6,105,148.6"/>
	<path class="st2" d="M99.4,272c14.5,33.8,29.1,67.3,43.6,88.4s29.1,29.3,43.6,21.8s29.1-30.7,43.6-61.2s29.1-67.6,43.6-98.1
		s29.1-53.6,43.6-61.2s29.1,0.8,43.6,21.8s29.1,54.6,43.6,88.4"/>
	<g transform="matrix(.77155 0 0 .5878 97.58 153.85)">
		<path class="st3" d="M100,0v400"/>
		<path class="st3" d="M200,0v400"/>
		<path class="st3" d="M300,0v400"/>
		<path class="st3" d="M0,100h400"/>
		<path class="st3" d="M0,200h400"/>
		<path class="st3" d="M0,300h400"/>
		<path class="st4" d="M50,0v400"/>
		<path class="st4" d="M150,0v400"/>
		<path class="st4" d="M250,0v400"/>
		<path class="st4" d="M350,0v400"/>
		<path class="st5" d="M8-0.6h384.5c4.4,0,8,3.6,8,8V394c0,4.4-3.6,8-8,8H8c-4.4,0-8-3.6-8-8V7.3C0,3,3.6-0.6,8-0.6"/>
	</g>
	<g transform="translate(232.37 -128.87)">
		<path class="st6" d="M234.2,302.1h162.5c7.9,0,14.5,12,14.6,27l0.9,70.6c0.2,14.9-6,27-14,27H235.7c-7.9,0-14.5-12-14.6-27
			l-0.9-70.6C220,314.1,226.3,302.1,234.2,302.1z"/>
		<g transform="translate(-34.257 3.5685)">
			<path id="a" class="st7" d="M273.6,313.4h15.3c1.5,0,2.7,1.2,2.7,2.8l-0.1,7.6c0,1.5-1.3,2.8-2.8,2.8h-15.3
				c-1.5,0-2.7-1.2-2.7-2.8l0.1-7.6C270.8,314.6,272.1,313.4,273.6,313.4"/>
			<g transform="translate(2.1348e-6 26.589)">
				<path id="a_1_" class="st7" d="M273.6,339.9h15.3c1.5,0,2.7,1.2,2.7,2.8l-0.1,7.6c0,1.5-1.3,2.8-2.8,2.8h-15.3
					c-1.5,0-2.7-1.2-2.7-2.8l0.1-7.6C270.8,341.2,272.1,339.9,273.6,339.9"/>
			</g>
			<g transform="translate(2.1348e-6 53.179)">
				<path id="a_2_" class="st7" d="M273.6,366.5h15.3c1.5,0,2.7,1.2,2.7,2.8l-0.1,7.6c0,1.5-1.3,2.8-2.8,2.8h-15.3
					c-1.5,0-2.7-1.2-2.7-2.8l0.1-7.6C270.8,367.8,272.1,366.5,273.6,366.5"/>
			</g>
			<g transform="translate(44.699 7.4433e-7)">
				<path id="a_3_" class="st7" d="M318.3,313.4h15.3c1.5,0,2.7,1.2,2.7,2.8l-0.1,7.6c0,1.5-1.3,2.8-2.8,2.8h-15.3
					c-1.5,0-2.7-1.2-2.7-2.8l0.1-7.6C315.5,314.6,316.8,313.4,318.3,313.4"/>
			</g>
			<g transform="translate(44.699 26.589)">
				<path id="a_4_" class="st7" d="M318.3,339.9h15.3c1.5,0,2.7,1.2,2.7,2.8l-0.1,7.6c0,1.5-1.3,2.8-2.8,2.8h-15.3
					c-1.5,0-2.7-1.2-2.7-2.8l0.1-7.6C315.5,341.2,316.8,339.9,318.3,339.9"/>
			</g>
			<g transform="translate(44.699 53.179)">
				<path id="a_5_" class="st7" d="M318.3,366.5h15.3c1.5,0,2.7,1.2,2.7,2.8l-0.1,7.6c0,1.5-1.3,2.8-2.8,2.8h-15.3
					c-1.5,0-2.7-1.2-2.7-2.8l0.1-7.6C315.5,367.8,316.8,366.5,318.3,366.5"/>
			</g>
			<g transform="translate(89.397 7.4433e-7)">
				<path id="a_6_" class="st7" d="M363,313.4h15.3c1.5,0,2.7,1.2,2.7,2.8l-0.1,7.6c0,1.5-1.3,2.8-2.8,2.8h-15.3
					c-1.5,0-2.7-1.2-2.7-2.8l0.1-7.6C360.2,314.6,361.5,313.4,363,313.4"/>
			</g>
			<g transform="translate(89.397 26.589)">
				<path id="a_7_" class="st7" d="M363,339.9h15.3c1.5,0,2.7,1.2,2.7,2.8l-0.1,7.6c0,1.5-1.3,2.8-2.8,2.8h-15.3
					c-1.5,0-2.7-1.2-2.7-2.8l0.1-7.6C360.2,341.2,361.5,339.9,363,339.9"/>
			</g>
			<g transform="translate(134.1 7.4433e-7)">
				<path id="a_8_" class="st7" d="M407.7,313.4H423c1.5,0,2.7,1.2,2.7,2.8l-0.1,7.6c0,1.5-1.3,2.8-2.8,2.8h-15.3
					c-1.5,0-2.7-1.2-2.7-2.8l0.1-7.6C404.9,314.6,406.2,313.4,407.7,313.4"/>
			</g>
			<g transform="translate(134.1 26.589)">
				<path id="a_9_" class="st7" d="M407.7,339.9H423c1.5,0,2.7,1.2,2.7,2.8l-0.1,7.6c0,1.5-1.3,2.8-2.8,2.8h-15.3
					c-1.5,0-2.7-1.2-2.7-2.8l0.1-7.6C404.9,341.2,406.2,339.9,407.7,339.9"/>
			</g>
			<g transform="translate(89.832 52.42)">
				<path id="a_10_" class="st7" d="M363.4,365.8h15.3c1.5,0,2.7,1.2,2.7,2.8l-0.1,7.6c0,1.5-1.3,2.8-2.8,2.8h-15.3
					c-1.5,0-2.7-1.2-2.7-2.8l0.1-7.6C360.7,367,361.9,365.8,363.4,365.8"/>
			</g>
			<g transform="translate(134.53 52.42)">
				<path id="a_11_" class="st7" d="M408.1,365.8h15.3c1.5,0,2.7,1.2,2.7,2.8l-0.1,7.6c0,1.5-1.3,2.8-2.8,2.8H408
					c-1.5,0-2.7-1.2-2.7-2.8l0.1-7.6C405.4,367,406.6,365.8,408.1,365.8"/>
			</g>
			<g transform="translate(.6221 79.169)">
				<path id="a_12_" class="st7" d="M274.2,392.5h15.3c1.5,0,2.7,1.2,2.7,2.8l-0.1,7.6c0,1.5-1.3,2.8-2.8,2.8h-15.3
					c-1.5,0-2.7-1.2-2.7-2.8l0.1-7.6C271.5,393.8,272.7,392.5,274.2,392.5"/>
			</g>
			<g transform="translate(45.321 79.169)">
				<path id="a_13_" class="st7" d="M318.9,392.5h15.3c1.5,0,2.7,1.2,2.7,2.8l-0.1,7.6c0,1.5-1.3,2.8-2.8,2.8h-15.3
					c-1.5,0-2.7-1.2-2.7-2.8l0.1-7.6C316.2,393.8,317.4,392.5,318.9,392.5"/>
			</g>
			<g transform="translate(90.454 78.41)">
				<path id="a_14_" class="st7" d="M364.1,391.8h15.3c1.5,0,2.7,1.2,2.7,2.8l-0.1,7.6c0,1.5-1.3,2.8-2.8,2.8h-15.3
					c-1.5,0-2.7-1.2-2.7-2.8l0.1-7.6C361.3,393,362.5,391.8,364.1,391.8"/>
			</g>
			<g transform="translate(135.15 78.41)">
				<path id="a_15_" class="st7" d="M408.7,391.8H424c1.5,0,2.7,1.2,2.7,2.8l-0.1,7.6c0,1.5-1.3,2.8-2.8,2.8h-15.3
					c-1.5,0-2.7-1.2-2.7-2.8l0.1-7.6C406,393,407.2,391.8,408.7,391.8"/>
			</g>
		</g>
	</g>
	<g transform="translate(771.94 58.245)">
		<path class="st8" d="M-235.5,284.3c-19.4-0.5-30.2,28.6-15.4,42.4c12.7,14.3,38.4,4.8,39.3-15.1
			C-210.2,297.3-222,283.4-235.5,284.3z"/>
	</g>
	<g>
		<path class="st9" d="M556.3,367.5c0,10.5-8.5,19.1-19.1,19.1c-10.5,0-19.1-8.5-19.1-19.1s8.5-19.1,19.1-19.1
			C547.8,348.4,556.3,357,556.3,367.5"/>
	</g>
	<g>
		<path class="st10" d="M551.8,367.5c0,8.1-6.5,14.6-14.6,14.6s-14.6-6.5-14.6-14.6c0-8.1,6.5-14.6,14.6-14.6
			S551.8,359.4,551.8,367.5z"/>
	</g>
	<path class="st11" d="M541.1,367.4c0,2.1-1.7,3.9-3.9,3.9c-2.1,0-3.9-1.7-3.9-3.9c0-2.1,1.7-3.9,3.9-3.9S541.1,365.3,541.1,367.4z"
		/>
	
		<linearGradient id="SVGID_2_" gradientUnits="userSpaceOnUse" x1="302.9313" y1="312.1975" x2="305.0513" y2="97.4175" gradientTransform="matrix(1 0 0 -1 -54.312 454.782)">
		<stop  offset="0" style="stop-color:#FFFFFF;stop-opacity:0.502"/>
		<stop  offset="1" style="stop-color:#666666;stop-opacity:0"/>
	</linearGradient>
	<path class="st12" d="M103,152.5l300.2,0.2C359.9,302.1,189.5,212,96.4,366.4l0.1-204.8C96.2,155.9,97.7,153.3,103,152.5L103,152.5
		z"/>
	<g transform="translate(695.31 58.245)">
		<path class="st8" d="M-235.5,284.3c-19.4-0.5-30.2,28.6-15.4,42.4c12.7,14.3,38.4,4.8,39.3-15.1
			C-210.2,297.3-222,283.4-235.5,284.3z"/>
	</g>
	<g>
		<path class="st9" d="M479.7,367.5c0,10.5-8.5,19.1-19.1,19.1s-19.1-8.5-19.1-19.1s8.5-19.1,19.1-19.1S479.7,357,479.7,367.5"/>
	</g>
	<g>
		<path class="st10" d="M475.2,367.5c0,8.1-6.5,14.6-14.6,14.6s-14.6-6.5-14.6-14.6c0-8.1,6.5-14.6,14.6-14.6
			S475.2,359.4,475.2,367.5z"/>
	</g>
	<path class="st11" d="M464.5,367.4c0,2.1-1.7,3.9-3.9,3.9s-3.9-1.7-3.9-3.9c0-2.1,1.7-3.9,3.9-3.9S464.5,365.3,464.5,367.4z"/>
	<g transform="translate(848.56 58.203)">
		<path class="st8" d="M-235.5,284.3c-19.4-0.5-30.2,28.6-15.4,42.4c12.7,14.3,38.4,4.8,39.3-15.1
			C-210.2,297.3-222,283.4-235.5,284.3z"/>
	</g>
	<g>
		<path class="st9" d="M632.9,367.5c0,10.5-8.5,19.1-19.1,19.1c-10.5,0-19.1-8.5-19.1-19.1s8.5-19.1,19.1-19.1
			C624.4,348.4,632.9,356.9,632.9,367.5"/>
	</g>
	<g>
		<path class="st10" d="M628.5,367.4c0,8.1-6.5,14.6-14.6,14.6s-14.6-6.5-14.6-14.6s6.5-14.6,14.6-14.6S628.5,359.4,628.5,367.4z"/>
	</g>
	<path class="st11" d="M617.7,367.4c0,2.1-1.7,3.9-3.9,3.9c-2.1,0-3.9-1.7-3.9-3.9c0-2.1,1.7-3.9,3.9-3.9S617.7,365.3,617.7,367.4z"
		/>
</g>
</svg>
